<?xml version="1.0" encoding="UTF-8"?>
<svg version="1.1" xmlns="http://www.w3.org/2000/svg" width="445" height="393">
<path d="M0 0 C145.53 0 291.06 0 441 0 C441 128.37 441 256.74 441 389 C295.47 389 149.94 389 0 389 C0 260.63 0 132.26 0 0 Z " fill="#241223" transform="translate(2,2)"/>
<path d="M0 0 C33.9196189 28.96559683 54.14015687 63.483233 57.9375 108.1875 C58.79220212 121.91800337 58.11438036 134.80880667 54.9375 148.1875 C54.75574219 149.23035156 54.57398438 150.27320313 54.38671875 151.34765625 C50.89535821 170.13450104 40.26679748 188.8339895 27.9375 203.1875 C26.87015625 204.4559375 26.87015625 204.4559375 25.78125 205.75 C20.65579864 211.66953538 15.22350297 216.53714066 8.9375 221.1875 C8.26976562 221.68185547 7.60203125 222.17621094 6.9140625 222.68554688 C2.29875048 226.09035162 -2.35215053 229.44026134 -7.03710938 232.74853516 C-8.65836086 233.90037414 -10.26196007 235.07704371 -11.859375 236.26171875 C-25.89821235 246.10266846 -45.79496888 252.94823567 -62.875 254.375 C-63.77371826 254.45322998 -64.67243652 254.53145996 -65.59838867 254.61206055 C-81.04852101 255.84393355 -95.96914708 256.0368871 -111.0625 252.1875 C-111.74231934 252.01589355 -112.42213867 251.84428711 -113.12255859 251.66748047 C-130.63679532 247.12765399 -146.98310133 240.24043245 -162.0625 230.1875 C-162.0625 229.5275 -162.0625 228.8675 -162.0625 228.1875 C-162.64 228.08179688 -163.2175 227.97609375 -163.8125 227.8671875 C-174.94963807 224.50284371 -186.9019153 210.04280731 -194.0625 201.1875 C-195.32513672 199.66382813 -195.32513672 199.66382813 -196.61328125 198.109375 C-208.38218764 183.71025728 -216.26478894 168.47030837 -223.0625 151.1875 C-223.72958984 149.52847656 -223.72958984 149.52847656 -224.41015625 147.8359375 C-230.10645845 131.76500125 -230.73741548 113.11230362 -230.0625 96.1875 C-230.04316406 94.98867187 -230.02382812 93.78984375 -230.00390625 92.5546875 C-229.0525013 65.85768796 -218.16267151 40.51688844 -201.0625 20.1875 C-200.09957031 19.02347656 -200.09957031 19.02347656 -199.1171875 17.8359375 C-190.81283915 8.18328167 -180.96621027 -0.17606319 -170.38671875 -7.24609375 C-168.85789142 -8.27644629 -167.35827731 -9.35176963 -165.89453125 -10.47265625 C-117.38763009 -47.1241702 -44.97245784 -37.10853548 0 0 Z " fill="#F698BD" transform="translate(314.0625,71.8125)"/>
<path d="M0 0 C0.66 0.33 1.32 0.66 2 1 C1.46890625 1.43570313 0.9378125 1.87140625 0.390625 2.3203125 C-3.8690524 5.91150038 -7.03394545 9.23312662 -10 14 C-12.125 16.375 -12.125 16.375 -14 18 C-14.66 18 -15.32 18 -16 18 C-16.34804687 18.99966797 -16.34804687 18.99966797 -16.703125 20.01953125 C-18.0386217 23.08876012 -19.6488128 25.74344298 -21.42724609 28.56811523 C-32.32032523 46.02157037 -38.37690272 67.41069854 -39 88 C-39.03996094 89.1446875 -39.07992187 90.289375 -39.12109375 91.46875 C-39.29353424 101.12541738 -38.41626752 110.46927217 -37 120 C-36.82855469 121.20011719 -36.65710938 122.40023437 -36.48046875 123.63671875 C-30.14227509 160.80715772 -6.79376014 196.41800811 23.79711914 218.29125977 C27.14602612 220.61135655 30.55287239 222.82900433 34 225 C34.64839844 225.40879395 35.29679687 225.81758789 35.96484375 226.23876953 C66.41359865 245.10076232 104.78392614 251.97785931 139.8203125 243.9609375 C148.35707861 241.80935131 156.33106162 238.81238477 164.27734375 235.0390625 C167 234 167 234 170 235 C162.91428726 240.45876976 155.83843435 244.07634135 147.5 247.25 C146.43652344 247.67023438 145.37304688 248.09046875 144.27734375 248.5234375 C134.64369814 252.28233235 125.52457029 255.32400256 115.1875 256.1875 C114.28878174 256.26572998 113.39006348 256.34395996 112.46411133 256.42456055 C97.01397899 257.65643355 82.09335292 257.8493871 67 254 C66.32018066 253.82839355 65.64036133 253.65678711 64.93994141 253.47998047 C47.42570468 248.94015399 31.07939867 242.05293245 16 232 C16 231.34 16 230.68 16 230 C15.4225 229.89429688 14.845 229.78859375 14.25 229.6796875 C3.11286193 226.31534371 -8.8394153 211.85530731 -16 203 C-17.26263672 201.47632813 -17.26263672 201.47632813 -18.55078125 199.921875 C-30.31968764 185.52275728 -38.20228894 170.28280837 -45 153 C-45.66708984 151.34097656 -45.66708984 151.34097656 -46.34765625 149.6484375 C-52.04395845 133.57750125 -52.67491548 114.92480362 -52 98 C-51.98066406 96.80117187 -51.96132812 95.60234375 -51.94140625 94.3671875 C-50.9900013 67.67018796 -40.10017151 42.32938844 -23 22 C-22.03707031 20.83597656 -22.03707031 20.83597656 -21.0546875 19.6484375 C-14.72244645 12.28808351 -7.45689176 6.17341537 0 0 Z " fill="#D150D7" transform="translate(136,70)"/>
<path d="M0 0 C5.94 0 11.88 0 18 0 C19.04598927 3.13796782 19.33333126 5.79740501 19.61669922 9.09082031 C19.78224808 10.98250946 19.78224808 10.98250946 19.95114136 12.91241455 C20.0690136 14.3009827 20.1868616 15.68955291 20.3046875 17.078125 C20.43023084 18.52418105 20.55614324 19.9702051 20.68240356 21.41619873 C21.01644557 25.25095571 21.34637021 29.08605511 21.6751709 32.92126465 C22.25533532 39.68228884 22.84204039 46.44274771 23.4296875 53.203125 C23.493554 53.93947678 23.5574205 54.67582855 23.62322235 55.43449402 C24.97241356 70.96712629 26.4623797 86.48497684 28 102 C28.67691895 101.38946777 29.35383789 100.77893555 30.05126953 100.14990234 C30.94442871 99.34504395 31.83758789 98.54018555 32.7578125 97.7109375 C33.64098145 96.91478027 34.52415039 96.11862305 35.43408203 95.29833984 C37.56603259 93.38871258 39.71094021 91.49801421 41.875 89.625 C44.27333622 87.54351714 46.62917959 85.42546843 48.953125 83.26171875 C49.47664551 82.77558105 50.00016602 82.28944336 50.53955078 81.78857422 C51.56739713 80.83163565 52.59202559 79.87122442 53.61279297 78.90673828 C56.89226124 75.85578908 60.23228621 73.38696408 64 71 C65.8187336 72.76480081 67.62994991 74.53630765 69.4375 76.3125 C69.95376953 76.81201172 70.47003906 77.31152344 71.00195312 77.82617188 C73.40590176 80.19869635 74.91656793 81.74970379 76 85 C71.52487256 89.58224485 66.96895637 93.98638585 62.1171875 98.16796875 C55.92417522 103.52686683 49.90309281 109.08218761 43.875 114.625 C39.30966032 118.82095695 34.68790487 122.94166913 30 127 C28.49935908 128.31176715 26.99935031 129.62425786 25.5 130.9375 C24.33333333 131.95833333 23.16666667 132.97916667 22 134 C18.28335376 132.36004099 15.2342978 129.99324925 12.0625 127.5 C10.89070497 126.58843885 9.71882781 125.67698329 8.546875 124.765625 C7.95326172 124.30220703 7.35964844 123.83878906 6.74804688 123.36132812 C4.11384922 121.30989151 1.46237645 119.28112357 -1.1875 117.25 C-7.25086636 112.5914802 -13.2852227 107.89584221 -19.31567383 103.19482422 C-22.83178132 100.45569274 -26.3523743 97.72371794 -29.8984375 95.0234375 C-30.49011719 94.57226562 -31.08179688 94.12109375 -31.69140625 93.65625 C-33.25851724 92.46364581 -34.82836913 91.27464559 -36.3984375 90.0859375 C-38.77350378 88.18160508 -40.89981221 86.19972276 -43 84 C-41.57391198 81.99092002 -40.13533968 79.99330486 -38.6875 78 C-38.28337891 77.42765625 -37.87925781 76.8553125 -37.46289062 76.265625 C-36.38099475 74.78791356 -35.19544451 73.38745891 -34 72 C-30.0876019 72 -29.01837007 73.24176717 -25.9375 75.625 C-25.42727295 76.01671387 -24.9170459 76.40842773 -24.39135742 76.81201172 C-22.5881563 78.20030999 -20.79415656 79.6000347 -19 81 C-17.50807722 82.15659155 -16.01587557 83.31282344 -14.5234375 84.46875 C-11.47692844 86.83142607 -8.43384113 89.19838314 -5.39453125 91.5703125 C-4.68119629 92.1262207 -3.96786133 92.68212891 -3.23291016 93.25488281 C-1.64612079 94.49502827 -0.06281841 95.73964109 1.51806641 96.98730469 C2.3332373 97.62829102 3.1484082 98.26927734 3.98828125 98.9296875 C4.73247314 99.51733887 5.47666504 100.10499023 6.2434082 100.71044922 C7.771164 102.09862941 7.771164 102.09862941 9 102 C8.23129523 93.62480354 7.45988158 85.24985811 6.6875 76.875 C6.57361938 75.63882935 6.45973877 74.40265869 6.34240723 73.12902832 C5.03924607 58.99601761 3.71038034 44.86764294 2.25 30.75 C1.19290978 20.50038442 0.45151438 10.29452781 0 0 Z " fill="#A71D5F" transform="translate(216,111)"/>
<path d="M0 0 C0.66 0 1.32 0 2 0 C5.04793309 7.11184388 5.90745055 12.3701978 4 20 C4.15210938 20.6084375 4.30421875 21.216875 4.4609375 21.84375 C7.54303044 34.17212176 3.39195448 50.07727999 0 62 C-0.30035156 63.10988281 -0.60070312 64.21976562 -0.91015625 65.36328125 C-2.06423377 69.21434279 -3.43473025 72.9002508 -4.9375 76.625 C-5.18951172 77.26695312 -5.44152344 77.90890625 -5.70117188 78.5703125 C-7.18352412 82.27050635 -8.87385197 85.63260912 -11 89 C-12.31382835 91.57053373 -13.61348428 94.13981305 -14.796875 96.7734375 C-17.73686149 103.09182951 -21.7984753 108.46667124 -26 114 C-26.87011719 115.16402344 -26.87011719 115.16402344 -27.7578125 116.3515625 C-41.64369692 134.62926153 -58.53446684 148.65583472 -79 159 C-80.25876953 159.67482422 -80.25876953 159.67482422 -81.54296875 160.36328125 C-86.49909009 162.96812642 -91.31600481 164.83378306 -96.7109375 166.3203125 C-99.21844346 167.00834209 -99.21844346 167.00834209 -102.3125 168.5 C-112.26735215 172.54943138 -123.47149269 173.94672264 -134 176 C-134 175.34 -134 174.68 -134 174 C-134.54277588 174.32524658 -135.08555176 174.65049316 -135.64477539 174.9855957 C-138.48892438 176.21058161 -140.59161058 176.24324244 -143.68359375 176.23046875 C-144.77607422 176.22853516 -145.86855469 176.22660156 -146.99414062 176.22460938 C-148.13044922 176.21236328 -149.26675781 176.20011719 -150.4375 176.1875 C-152.13616211 176.1865332 -152.13616211 176.1865332 -153.86914062 176.18554688 C-158.73512808 176.15974022 -163.2385348 176.06525273 -168 175 C-169.43540577 174.79708924 -170.87291997 174.60829763 -172.3125 174.4375 C-173.529375 174.293125 -174.74625 174.14875 -176 174 C-176 173.34 -176 172.68 -176 172 C-177.2065625 172.0309375 -177.2065625 172.0309375 -178.4375 172.0625 C-181 172 -181 172 -182 171 C-184.67058851 170.85884839 -187.32432238 170.95752893 -190 171 C-190 170.01 -190 169.02 -190 168 C-192.31 168 -194.62 168 -197 168 C-197 167.34 -197 166.68 -197 166 C-197.639375 165.690625 -198.27875 165.38125 -198.9375 165.0625 C-201 164 -201 164 -202 163 C-203.299375 162.896875 -204.59875 162.79375 -205.9375 162.6875 C-211.34264319 162.12536511 -216.25585966 160.68923963 -221 158 C-222.01187895 156.34051852 -223.0126546 154.67419438 -224 153 C-226.09755205 152.1372359 -226.09755205 152.1372359 -228.5 151.5 C-232.77083333 150.27777778 -232.77083333 150.27777778 -235.0625 147.5 C-236 145 -236 145 -236 142 C-239.3 142 -242.6 142 -246 142 C-247 136.25 -247 136.25 -247 134 C-248.98 134 -250.96 134 -253 134 C-253 133.34 -253 132.68 -253 132 C-254.32 132 -255.64 132 -257 132 C-257 131.34 -257 130.68 -257 130 C-257.66 130 -258.32 130 -259 130 C-259 129.34 -259 128.68 -259 128 C-259.66 128 -260.32 128 -261 128 C-261 126.68 -261 125.36 -261 124 C-261.66 124 -262.32 124 -263 124 C-263 121.36 -263 118.72 -263 116 C-263.66 116 -264.32 116 -265 116 C-265 111.05 -265 106.1 -265 101 C-262.11024255 103.88975745 -259.3867364 106.61796596 -256.75 109.6875 C-256.151875 110.37328125 -255.55375 111.0590625 -254.9375 111.765625 C-253.59700066 113.31152343 -252.2641456 114.86407145 -250.9375 116.421875 C-243.74852206 124.68919963 -235.81068634 131.98564921 -226 137 C-226 137.66 -226 138.32 -226 139 C-225.30390625 139.25394531 -224.6078125 139.50789062 -223.890625 139.76953125 C-220.64420131 141.15145485 -217.77143781 142.86532956 -214.75 144.6875 C-200.98830424 152.70186883 -186.47090302 157.46212281 -171 161 C-169.45119141 161.37125 -169.45119141 161.37125 -167.87109375 161.75 C-158.0686677 163.75789381 -147.94885421 163.34548286 -138 163 C-136.68104736 162.95431885 -136.68104736 162.95431885 -135.33544922 162.90771484 C-121.29781375 162.29306153 -109.06368936 159.0549412 -96 154 C-95.27973633 153.73590332 -94.55947266 153.47180664 -93.81738281 153.19970703 C-82.59282141 149.06700341 -73.49036269 142.78898014 -64.02880859 135.54541016 C-62.23005079 134.17523724 -60.414936 132.83563532 -58.58203125 131.51171875 C-42.12413637 119.5249208 -30.23175022 106.1142655 -21 88 C-20.48542236 86.99308105 -20.48542236 86.99308105 -19.96044922 85.96582031 C-10.70235371 67.46671854 -7.39140325 48.49723894 -6 28 C-5.34 28 -4.68 28 -4 28 C-4.03480469 27.12859375 -4.06960938 26.2571875 -4.10546875 25.359375 C-4.30294647 16.67035552 -3.9665214 7.93304279 0 0 Z M2 4 C3 7 3 7 3 7 Z M3 8 C4 10 4 10 4 10 Z " fill="#68237D" transform="translate(378,163)"/>
<path d="M0 0 C3.28778062 0.32960207 6.5682872 0.50465102 9.8671875 0.6875 C16.49630459 1.18826064 21.52564843 2.58480728 27.1171875 6.3125 C29.50395826 6.60702584 31.90344844 6.8053217 34.3046875 6.9375 C35.57699219 7.01226562 36.84929687 7.08703125 38.16015625 7.1640625 C39.62388672 7.23753906 39.62388672 7.23753906 41.1171875 7.3125 C41.1171875 7.9725 41.1171875 8.6325 41.1171875 9.3125 C43.0971875 9.3125 45.0771875 9.3125 47.1171875 9.3125 C47.1171875 9.9725 47.1171875 10.6325 47.1171875 11.3125 C48.0453125 11.456875 48.9734375 11.60125 49.9296875 11.75 C53.1171875 12.3125 53.1171875 12.3125 56.1171875 13.3125 C56.1171875 13.9725 56.1171875 14.6325 56.1171875 15.3125 C57.4371875 15.3125 58.7571875 15.3125 60.1171875 15.3125 C61.1071875 16.7975 61.1071875 16.7975 62.1171875 18.3125 C65.18275348 19.04593428 65.18275348 19.04593428 68.1171875 19.3125 C68.1171875 19.9725 68.1171875 20.6325 68.1171875 21.3125 C69.1071875 21.3125 70.0971875 21.3125 71.1171875 21.3125 C71.1171875 21.9725 71.1171875 22.6325 71.1171875 23.3125 C71.7771875 23.3125 72.4371875 23.3125 73.1171875 23.3125 C73.1171875 23.9725 73.1171875 24.6325 73.1171875 25.3125 C73.7771875 25.3125 74.4371875 25.3125 75.1171875 25.3125 C75.1171875 25.9725 75.1171875 26.6325 75.1171875 27.3125 C75.7771875 27.3125 76.4371875 27.3125 77.1171875 27.3125 C77.1171875 27.9725 77.1171875 28.6325 77.1171875 29.3125 C77.7771875 29.3125 78.4371875 29.3125 79.1171875 29.3125 C79.1171875 29.9725 79.1171875 30.6325 79.1171875 31.3125 C81.4271875 31.3125 83.7371875 31.3125 86.1171875 31.3125 C86.4471875 32.3025 86.7771875 33.2925 87.1171875 34.3125 C89.13227108 35.04573796 89.13227108 35.04573796 91.1171875 35.3125 C91.1171875 36.6325 91.1171875 37.9525 91.1171875 39.3125 C92.1071875 39.3125 93.0971875 39.3125 94.1171875 39.3125 C94.4471875 41.2925 94.7771875 43.2725 95.1171875 45.3125 C95.7771875 45.3125 96.4371875 45.3125 97.1171875 45.3125 C97.1171875 45.9725 97.1171875 46.6325 97.1171875 47.3125 C97.7771875 47.3125 98.4371875 47.3125 99.1171875 47.3125 C99.1171875 47.9725 99.1171875 48.6325 99.1171875 49.3125 C99.7771875 49.3125 100.4371875 49.3125 101.1171875 49.3125 C102.64985332 52.37783164 102.21995221 55.58004272 102.1796875 58.9375 C102.17517578 59.64390625 102.17066406 60.3503125 102.16601562 61.078125 C102.15422625 62.82295275 102.13629074 64.567737 102.1171875 66.3125 C97.90087963 62.82207373 93.93772419 59.20005226 90.13452148 55.26416016 C64.68299 28.926946 27.84884284 11.79706258 -8.95800781 10.96337891 C-37.86589751 10.7322902 -66.67442897 17.2178281 -89.8828125 35.3125 C-90.80835938 35.98796875 -91.73390625 36.6634375 -92.6875 37.359375 C-118.86769515 56.53551794 -138.58465833 79.32835236 -146.8828125 111.3125 C-147.16898438 112.35664063 -147.45515625 113.40078125 -147.75 114.4765625 C-149.85947333 122.73364381 -150.61415842 130.80791944 -150.8828125 139.3125 C-150.90472656 140.00424316 -150.92664063 140.69598633 -150.94921875 141.40869141 C-151.18883773 150.16876191 -150.83093057 158.49898939 -149.3203125 167.1640625 C-148.84539832 170.58174846 -148.8133682 173.86632686 -148.8828125 177.3125 C-149.8728125 175.9925 -150.8628125 174.6725 -151.8828125 173.3125 C-154.03575901 178.60080549 -156.16215144 183.86373997 -157.8828125 189.3125 C-158.2128125 189.3125 -158.5428125 189.3125 -158.8828125 189.3125 C-159.0271875 188.075 -159.1715625 186.8375 -159.3203125 185.5625 C-159.58875603 183.31231157 -159.8716919 181.34687276 -160.5703125 179.1875 C-161.05646131 176.27060712 -159.9267556 174.01447038 -158.8828125 171.3125 C-159.8728125 171.3125 -160.8628125 171.3125 -161.8828125 171.3125 C-161.8828125 169.3325 -161.8828125 167.3525 -161.8828125 165.3125 C-162.2128125 165.3125 -162.5428125 165.3125 -162.8828125 165.3125 C-162.91184246 161.06251434 -162.92962137 156.81255419 -162.9453125 152.5625 C-162.95369141 151.3559375 -162.96207031 150.149375 -162.97070312 148.90625 C-162.97392578 147.74609375 -162.97714844 146.5859375 -162.98046875 145.390625 C-162.98570557 144.32231445 -162.99094238 143.25400391 -162.99633789 142.15332031 C-162.89784258 139.68860765 -162.59846714 137.66004533 -161.8828125 135.3125 C-161.2228125 135.3125 -160.5628125 135.3125 -159.8828125 135.3125 C-160.2128125 134.6525 -160.5428125 133.9925 -160.8828125 133.3125 C-161.01696722 130.6401379 -160.92599791 127.98999512 -160.8828125 125.3125 C-160.2228125 125.3125 -159.5628125 125.3125 -158.8828125 125.3125 C-158.9240625 124.075 -158.9653125 122.8375 -159.0078125 121.5625 C-159.0078125 118.20304513 -158.63053109 116.22536432 -156.8828125 113.3125 C-155.87478916 110.52561193 -154.98237319 107.84907043 -154.44140625 104.93359375 C-153.08920438 98.58864653 -150.24498231 92.81423241 -146.8828125 87.3125 C-146.6146875 86.384375 -146.3465625 85.45625 -146.0703125 84.5 C-144.69903432 80.81920067 -142.76288221 78.28318679 -140.3203125 75.2421875 C-138.8897374 73.32179593 -137.91609049 71.4678533 -136.8828125 69.3125 C-135.90125143 67.55209156 -134.90029431 65.8023939 -133.8828125 64.0625 C-133.3671875 63.17046875 -132.8515625 62.2784375 -132.3203125 61.359375 C-131.8459375 60.68390625 -131.3715625 60.0084375 -130.8828125 59.3125 C-130.2228125 59.3125 -129.5628125 59.3125 -128.8828125 59.3125 C-128.63917969 58.74015625 -128.39554688 58.1678125 -128.14453125 57.578125 C-126.65763952 54.90816462 -124.90197342 53.17420993 -122.6953125 51.0625 C-119.74025756 48.18769416 -116.95855578 45.29210772 -114.3203125 42.125 C-110.53655 37.71647672 -106.14622784 33.87133529 -100.87109375 31.3515625 C-98.63215406 30.18150757 -97.09197618 28.79519931 -95.2578125 27.0625 C-90.82990191 23.10371749 -86.06978631 20.17484918 -80.8828125 17.3125 C-80.16738281 16.90773438 -79.45195312 16.50296875 -78.71484375 16.0859375 C-74.39495201 13.76305568 -70.77840645 12.98444427 -65.8828125 12.3125 C-64.86176699 11.33399805 -63.8622004 10.33269573 -62.8828125 9.3125 C-59.5078125 8.1875 -59.5078125 8.1875 -55.8828125 7.3125 C-54.9546875 7.085625 -54.0265625 6.85875 -53.0703125 6.625 C-50.8828125 6.3125 -50.8828125 6.3125 -48.8828125 7.3125 C-48.8828125 6.6525 -48.8828125 5.9925 -48.8828125 5.3125 C-46.9028125 5.3125 -44.9228125 5.3125 -42.8828125 5.3125 C-42.8828125 4.6525 -42.8828125 3.9925 -42.8828125 3.3125 C-37.91218129 2.39952692 -33.85344371 2.39952692 -28.8828125 3.3125 C-28.8828125 2.6525 -28.8828125 1.9925 -28.8828125 1.3125 C-26.77929327 1.07111255 -24.67543738 0.83242753 -22.5703125 0.60546875 C-20.79806794 0.41227349 -19.0271118 0.20681078 -17.2578125 -0.01171875 C-11.37689231 -0.66990313 -5.88397279 -0.61132185 0 0 Z M-159.8828125 149.3125 C-161.22183042 150.42376659 -161.22183042 150.42376659 -160.98046875 153.25390625 C-160.96886719 154.44886719 -160.95726562 155.64382812 -160.9453125 156.875 C-160.93628906 158.07253906 -160.92726563 159.27007812 -160.91796875 160.50390625 C-160.90636719 161.43074219 -160.89476562 162.35757813 -160.8828125 163.3125 C-158.58220716 161.4496051 -158.58220716 161.4496051 -158.6875 158.4921875 C-158.71070313 157.40164062 -158.73390625 156.31109375 -158.7578125 155.1875 C-158.77585937 154.09179688 -158.79390625 152.99609375 -158.8125 151.8671875 C-158.83570313 151.02414063 -158.85890625 150.18109375 -158.8828125 149.3125 C-159.2128125 149.3125 -159.5428125 149.3125 -159.8828125 149.3125 Z M-156.8828125 163.3125 C-157.2128125 165.2925 -157.5428125 167.2725 -157.8828125 169.3125 C-157.2228125 168.6525 -156.5628125 167.9925 -155.8828125 167.3125 C-156.2013302 165.20429203 -156.2013302 165.20429203 -156.8828125 163.3125 Z " fill="#622377" transform="translate(235.8828125,28.6875)"/>
<path d="M0 0 C33.16227489 26.5833752 55.40124121 60.83271372 60.3671875 103.3359375 C62.01462418 119.50311942 61.81587649 134.90363942 58.05859375 150.7265625 C57.87683594 151.76941406 57.69507813 152.81226563 57.5078125 153.88671875 C54.01645196 172.67356354 43.38789123 191.373052 31.05859375 205.7265625 C30.34703125 206.5721875 29.63546875 207.4178125 28.90234375 208.2890625 C23.80117499 214.18055318 18.2966077 219.06433078 12.05859375 223.7265625 C12.05859375 219.61066395 13.6401234 218.81350272 16.49609375 215.9140625 C25.90858476 205.96755326 32.38752801 194.12047059 38.05859375 181.7265625 C38.75275391 180.22609375 38.75275391 180.22609375 39.4609375 178.6953125 C45.57677896 164.27010588 48.12822936 147.20941288 48.296875 131.58984375 C48.30662354 130.83642197 48.31637207 130.08300018 48.32641602 129.30674744 C48.48482762 113.90211028 48.63769998 98.89407918 44.63525391 83.89550781 C44.07087782 81.77276558 43.58217456 79.6430407 43.1015625 77.5 C35.52942481 46.07231072 12.34589777 16.64941662 -14.94140625 -0.2734375 C-39.8005247 -14.79914406 -64.15233063 -20.84728229 -92.81640625 -20.8984375 C-93.7082663 -20.90524536 -94.60012634 -20.91205322 -95.51901245 -20.91906738 C-118.55798851 -21.01971475 -140.14548254 -16.34325753 -160.83984375 -6.15625 C-162.94140625 -5.2734375 -162.94140625 -5.2734375 -165.94140625 -5.2734375 C-149.08740133 -19.25867562 -128.32026043 -26.22245112 -106.94140625 -29.2734375 C-105.86890625 -29.45777344 -104.79640625 -29.64210937 -103.69140625 -29.83203125 C-67.02561773 -34.14790011 -29.07444911 -22.47188497 0 0 Z " fill="#D68BB9" transform="translate(310.94140625,69.2734375)"/>
<path d="M0 0 C3.66875888 13.03143154 -0.38917578 29.30795287 -4 42 C-4.45052734 43.66482422 -4.45052734 43.66482422 -4.91015625 45.36328125 C-6.06423377 49.21434279 -7.43473025 52.9002508 -8.9375 56.625 C-9.18951172 57.26695312 -9.44152344 57.90890625 -9.70117188 58.5703125 C-11.18352412 62.27050635 -12.87385197 65.63260912 -15 69 C-16.31382835 71.57053373 -17.61348428 74.13981305 -18.796875 76.7734375 C-21.73686149 83.09182951 -25.7984753 88.46667124 -30 94 C-30.87011719 95.16402344 -30.87011719 95.16402344 -31.7578125 96.3515625 C-45.64369692 114.62926153 -62.53446684 128.65583472 -83 139 C-83.83917969 139.44988281 -84.67835938 139.89976562 -85.54296875 140.36328125 C-90.49909009 142.96812642 -95.31600481 144.83378306 -100.7109375 146.3203125 C-103.21844346 147.00834209 -103.21844346 147.00834209 -106.3125 148.5 C-116.26735215 152.54943138 -127.47149269 153.94672264 -138 156 C-138 155.34 -138 154.68 -138 154 C-138.54277588 154.32524658 -139.08555176 154.65049316 -139.64477539 154.9855957 C-142.48892438 156.21058161 -144.59161058 156.24324244 -147.68359375 156.23046875 C-148.77607422 156.22853516 -149.86855469 156.22660156 -150.99414062 156.22460938 C-152.13044922 156.21236328 -153.26675781 156.20011719 -154.4375 156.1875 C-156.13616211 156.1865332 -156.13616211 156.1865332 -157.86914062 156.18554688 C-162.73512808 156.15974022 -167.2385348 156.06525273 -172 155 C-173.43540577 154.79708924 -174.87291997 154.60829763 -176.3125 154.4375 C-177.529375 154.293125 -178.74625 154.14875 -180 154 C-180 153.34 -180 152.68 -180 152 C-181.2065625 152.0309375 -181.2065625 152.0309375 -182.4375 152.0625 C-185 152 -185 152 -186 151 C-188.67058851 150.85884839 -191.32432238 150.95752893 -194 151 C-194 150.01 -194 149.02 -194 148 C-196.31 148 -198.62 148 -201 148 C-201 147.34 -201 146.68 -201 146 C-201.598125 145.71125 -202.19625 145.4225 -202.8125 145.125 C-205 144 -205 144 -208 142 C-208 141.34 -208 140.68 -208 140 C-198.28571429 141.71428571 -198.28571429 141.71428571 -195 145 C-193.03511169 145.88778692 -193.03511169 145.88778692 -190.875 146.625 C-190.15054688 146.88539063 -189.42609375 147.14578125 -188.6796875 147.4140625 C-188.12539062 147.60742188 -187.57109375 147.80078125 -187 148 C-187 147.34 -187 146.68 -187 146 C-183.28400809 145.79913557 -182.22791555 145.8480563 -179 148 C-178.67 147.34 -178.34 146.68 -178 146 C-177.44054687 146.14147461 -176.88109375 146.28294922 -176.3046875 146.42871094 C-168.83839455 148.13623533 -161.63592947 148.29894827 -154 148.25 C-152.19015625 148.26160156 -152.19015625 148.26160156 -150.34375 148.2734375 C-144.10292639 148.25987049 -138.38070421 147.85180415 -132.30126953 146.45458984 C-128.53024127 145.70966574 -124.76916652 145.74725227 -120.9375 145.6875 C-114.62487965 145.4847294 -109.98467173 144.87775539 -104.7265625 141.05859375 C-103 140 -103 140 -99 140 C-98.34 139.34 -97.68 138.68 -97 138 C-95.3358512 137.26777453 -93.669309 136.5402536 -91.98828125 135.84765625 C-87.90448092 134.10662546 -83.98445869 132.01191643 -80.03125 129.99609375 C-76.4989741 128.20893035 -72.95801838 126.54512037 -69.3125 125 C-64.7220383 122.97294045 -61.31474821 120.67743737 -58.1875 116.6875 C-56.34291047 114.42129 -54.64203677 112.75244086 -52.4375 110.875 C-38.35860491 98.75877616 -28.31649599 85.60075997 -20.02490234 69.04541016 C-19.32048649 67.6395988 -18.60673141 66.23844047 -17.88525391 64.84130859 C-17.52737793 64.14344238 -17.16950195 63.44557617 -16.80078125 62.7265625 C-16.47891846 62.10346191 -16.15705566 61.48036133 -15.82543945 60.83837891 C-14.9760317 58.94661896 -14.4771453 57.13972856 -14 55.125 C-13.67 54.09375 -13.34 53.0625 -13 52 C-12.319375 51.67 -11.63875 51.34 -10.9375 51 C-9.9784375 50.505 -9.9784375 50.505 -9 50 C-8.31126713 46.68203915 -8.31126713 46.68203915 -8 43 C-6.31578947 37.31578947 -6.31578947 37.31578947 -5 36 C-4.79160985 34.35892758 -4.63248275 32.71143707 -4.5 31.0625 C-4.10977702 26.21955403 -4.10977702 26.21955403 -3 24 C-2.79100182 22.27413221 -2.63217312 20.54203834 -2.5 18.80859375 C-2.4175 17.78185547 -2.335 16.75511719 -2.25 15.69726562 C-2.0830355 13.52020511 -1.91636989 11.34312166 -1.75 9.16601562 C-1.6675 8.14056641 -1.585 7.11511719 -1.5 6.05859375 C-1.4278125 5.11298584 -1.355625 4.16737793 -1.28125 3.19311523 C-1 1 -1 1 0 0 Z " fill="#541D60" transform="translate(382,183)"/>
<path d="M0 0 C3.28778062 0.32960207 6.5682872 0.50465102 9.8671875 0.6875 C16.49630459 1.18826064 21.52564843 2.58480728 27.1171875 6.3125 C29.50395826 6.60702584 31.90344844 6.8053217 34.3046875 6.9375 C35.57699219 7.01226562 36.84929687 7.08703125 38.16015625 7.1640625 C39.62388672 7.23753906 39.62388672 7.23753906 41.1171875 7.3125 C41.1171875 7.9725 41.1171875 8.6325 41.1171875 9.3125 C43.0971875 9.3125 45.0771875 9.3125 47.1171875 9.3125 C47.1171875 9.9725 47.1171875 10.6325 47.1171875 11.3125 C44.8071875 11.3125 42.4971875 11.3125 40.1171875 11.3125 C40.1171875 11.9725 40.1171875 12.6325 40.1171875 13.3125 C41.4371875 13.3125 42.7571875 13.3125 44.1171875 13.3125 C44.1171875 13.9725 44.1171875 14.6325 44.1171875 15.3125 C44.8596875 15.250625 45.6021875 15.18875 46.3671875 15.125 C49.71206656 15.35305994 50.46650906 16.32449117 53.1171875 18.3125 C56.07505491 19.4525114 59.08274403 20.39827665 62.1171875 21.3125 C62.1171875 21.9725 62.1171875 22.6325 62.1171875 23.3125 C63.1071875 23.6425 64.0971875 23.9725 65.1171875 24.3125 C65.1171875 25.3025 65.1171875 26.2925 65.1171875 27.3125 C64.1271875 27.3125 63.1371875 27.3125 62.1171875 27.3125 C62.1171875 26.6525 62.1171875 25.9925 62.1171875 25.3125 C61.53839844 25.18875 60.95960938 25.065 60.36328125 24.9375 C58.0820003 24.30270878 56.26002491 23.43299856 54.1796875 22.3125 C51.16653187 20.75804962 48.51702131 19.73747923 45.1171875 19.3125 C45.1171875 18.6525 45.1171875 17.9925 45.1171875 17.3125 C44.1271875 17.3125 43.1371875 17.3125 42.1171875 17.3125 C42.1171875 16.6525 42.1171875 15.9925 42.1171875 15.3125 C40.1371875 15.3125 38.1571875 15.3125 36.1171875 15.3125 C36.1171875 14.6525 36.1171875 13.9925 36.1171875 13.3125 C34.786875 13.43625 34.786875 13.43625 33.4296875 13.5625 C29.40285385 13.25858803 27.93482157 12.13013407 25.1171875 9.3125 C25.1171875 8.6525 25.1171875 7.9925 25.1171875 7.3125 C24.03050781 7.32990234 24.03050781 7.32990234 22.921875 7.34765625 C17.8497369 7.39499621 13.10757316 7.31057713 8.1171875 6.3125 C0.55410182 5.02632256 -6.86154397 5.3459112 -14.5078125 5.625 C-16.45300781 5.67817383 -16.45300781 5.67817383 -18.4375 5.73242188 C-19.69046875 5.77560547 -20.9434375 5.81878906 -22.234375 5.86328125 C-23.36697754 5.90106689 -24.49958008 5.93885254 -25.66650391 5.9777832 C-28.99221465 6.32388533 -31.74800699 7.18060416 -34.8828125 8.3125 C-37.04296875 8.47265625 -37.04296875 8.47265625 -38.9453125 8.375 C-42.29447788 8.32183864 -44.66823103 8.59017589 -47.8828125 9.3125 C-48.84058594 9.52648438 -49.79835938 9.74046875 -50.78515625 9.9609375 C-51.78675781 10.20070313 -52.78835937 10.44046875 -53.8203125 10.6875 C-54.81933594 10.92210937 -55.81835938 11.15671875 -56.84765625 11.3984375 C-60.10759971 12.38019654 -62.87562399 13.72253741 -65.8828125 15.3125 C-66.86121094 15.79589844 -67.83960938 16.27929688 -68.84765625 16.77734375 C-78.54405242 21.37967389 -78.54405242 21.37967389 -87.3828125 27.375 C-89.8828125 29.3125 -89.8828125 29.3125 -93.0703125 30.5625 C-102.9736912 34.50651515 -110.67462087 43.75234108 -117.33203125 51.73828125 C-118.09966797 52.51751953 -118.09966797 52.51751953 -118.8828125 53.3125 C-119.5428125 53.3125 -120.2028125 53.3125 -120.8828125 53.3125 C-120.96789062 53.88097656 -121.05296875 54.44945312 -121.140625 55.03515625 C-122.09819679 57.97338968 -123.64011935 59.51207152 -125.7578125 61.75 C-129.37488816 65.58730351 -131.96475866 69.34524178 -134.1953125 74.125 C-135.62664101 76.82862051 -137.05857439 78.87783897 -138.9453125 81.25 C-141.70340217 84.82806228 -142.79778131 87.89487302 -143.8828125 92.3125 C-145.40033124 96.06166395 -147.06655288 99.74370362 -148.93359375 103.33203125 C-149.88463281 105.31629793 -150.51768001 107.18507265 -151.0703125 109.3125 C-151.33908203 110.3025 -151.33908203 110.3025 -151.61328125 111.3125 C-152.02730908 113.32861434 -152.02730908 113.32861434 -151.28125 115.265625 C-150.71008073 118.19986715 -151.85269482 119.50112931 -153.3203125 122.0625 C-156.50447689 128.71152647 -156.17156643 134.77905786 -155.92480469 141.95117188 C-155.84475899 146.45234644 -156.05597934 150.94162723 -156.2578125 155.4375 C-156.28907227 156.32614746 -156.32033203 157.21479492 -156.35253906 158.13037109 C-156.56713202 162.86674426 -157.08680518 166.85898591 -158.8828125 171.3125 C-159.8728125 171.3125 -160.8628125 171.3125 -161.8828125 171.3125 C-161.8828125 169.3325 -161.8828125 167.3525 -161.8828125 165.3125 C-162.2128125 165.3125 -162.5428125 165.3125 -162.8828125 165.3125 C-162.91184246 161.06251434 -162.92962137 156.81255419 -162.9453125 152.5625 C-162.95369141 151.3559375 -162.96207031 150.149375 -162.97070312 148.90625 C-162.97392578 147.74609375 -162.97714844 146.5859375 -162.98046875 145.390625 C-162.98570557 144.32231445 -162.99094238 143.25400391 -162.99633789 142.15332031 C-162.89784258 139.68860765 -162.59846714 137.66004533 -161.8828125 135.3125 C-161.2228125 135.3125 -160.5628125 135.3125 -159.8828125 135.3125 C-160.2128125 134.6525 -160.5428125 133.9925 -160.8828125 133.3125 C-161.01696722 130.6401379 -160.92599791 127.98999512 -160.8828125 125.3125 C-160.2228125 125.3125 -159.5628125 125.3125 -158.8828125 125.3125 C-158.9240625 124.075 -158.9653125 122.8375 -159.0078125 121.5625 C-159.0078125 118.20304513 -158.63053109 116.22536432 -156.8828125 113.3125 C-155.87478916 110.52561193 -154.98237319 107.84907043 -154.44140625 104.93359375 C-153.08920438 98.58864653 -150.24498231 92.81423241 -146.8828125 87.3125 C-146.6146875 86.384375 -146.3465625 85.45625 -146.0703125 84.5 C-144.69903432 80.81920067 -142.76288221 78.28318679 -140.3203125 75.2421875 C-138.8897374 73.32179593 -137.91609049 71.4678533 -136.8828125 69.3125 C-135.90125143 67.55209156 -134.90029431 65.8023939 -133.8828125 64.0625 C-133.3671875 63.17046875 -132.8515625 62.2784375 -132.3203125 61.359375 C-131.8459375 60.68390625 -131.3715625 60.0084375 -130.8828125 59.3125 C-130.2228125 59.3125 -129.5628125 59.3125 -128.8828125 59.3125 C-128.63917969 58.74015625 -128.39554688 58.1678125 -128.14453125 57.578125 C-126.65763952 54.90816462 -124.90197342 53.17420993 -122.6953125 51.0625 C-119.74025756 48.18769416 -116.95855578 45.29210772 -114.3203125 42.125 C-110.53655 37.71647672 -106.14622784 33.87133529 -100.87109375 31.3515625 C-98.63215406 30.18150757 -97.09197618 28.79519931 -95.2578125 27.0625 C-90.82990191 23.10371749 -86.06978631 20.17484918 -80.8828125 17.3125 C-80.16738281 16.90773438 -79.45195312 16.50296875 -78.71484375 16.0859375 C-74.39495201 13.76305568 -70.77840645 12.98444427 -65.8828125 12.3125 C-64.86176699 11.33399805 -63.8622004 10.33269573 -62.8828125 9.3125 C-59.5078125 8.1875 -59.5078125 8.1875 -55.8828125 7.3125 C-54.9546875 7.085625 -54.0265625 6.85875 -53.0703125 6.625 C-50.8828125 6.3125 -50.8828125 6.3125 -48.8828125 7.3125 C-48.8828125 6.6525 -48.8828125 5.9925 -48.8828125 5.3125 C-46.9028125 5.3125 -44.9228125 5.3125 -42.8828125 5.3125 C-42.8828125 4.6525 -42.8828125 3.9925 -42.8828125 3.3125 C-37.91218129 2.39952692 -33.85344371 2.39952692 -28.8828125 3.3125 C-28.8828125 2.6525 -28.8828125 1.9925 -28.8828125 1.3125 C-26.77929327 1.07111255 -24.67543738 0.83242753 -22.5703125 0.60546875 C-20.79806794 0.41227349 -19.0271118 0.20681078 -17.2578125 -0.01171875 C-11.37689231 -0.66990313 -5.88397279 -0.61132185 0 0 Z M-159.8828125 149.3125 C-161.22183042 150.42376659 -161.22183042 150.42376659 -160.98046875 153.25390625 C-160.96886719 154.44886719 -160.95726562 155.64382812 -160.9453125 156.875 C-160.93628906 158.07253906 -160.92726563 159.27007812 -160.91796875 160.50390625 C-160.90636719 161.43074219 -160.89476562 162.35757813 -160.8828125 163.3125 C-158.58220716 161.4496051 -158.58220716 161.4496051 -158.6875 158.4921875 C-158.71070313 157.40164062 -158.73390625 156.31109375 -158.7578125 155.1875 C-158.77585937 154.09179688 -158.79390625 152.99609375 -158.8125 151.8671875 C-158.83570313 151.02414063 -158.85890625 150.18109375 -158.8828125 149.3125 C-159.2128125 149.3125 -159.5428125 149.3125 -159.8828125 149.3125 Z " fill="#4B1D5A" transform="translate(235.8828125,28.6875)"/>
<path d="M0 0 C6.70234472 -0.27794084 12.71772467 0.72922119 19.25 2.1875 C20.78841553 2.53022949 20.78841553 2.53022949 22.35791016 2.87988281 C29.63942812 4.56281512 36.32149481 6.59874537 43 10 C43.64098633 10.31453125 44.28197266 10.6290625 44.94238281 10.953125 C58.94126634 17.84013883 70.63233531 26.25595328 82 37 C82.88429688 37.80824219 83.76859375 38.61648437 84.6796875 39.44921875 C106.10816035 59.75466965 121.84366095 90.86733017 123.109375 120.56640625 C123.12197689 122.37792724 123.07098719 124.18982655 123 126 C122.34 125.67 121.68 125.34 121 125 C120.47265625 122.9609375 120.47265625 122.9609375 120.0625 120.375 C119.24946693 115.89061448 117.86318648 112.17353773 116 108 C115.54963626 106.48274186 115.11759226 104.95998275 114.69921875 103.43359375 C113.05703535 97.8752007 110.77810282 92.76832022 108.25 87.5625 C107.80462891 86.64017578 107.35925781 85.71785156 106.90039062 84.76757812 C100.19749523 71.081291 91.53300877 57.60262319 80.1796875 47.26953125 C79 46 79 46 79 44 C78.11441406 43.61328125 78.11441406 43.61328125 77.2109375 43.21875 C74.81549217 41.8982925 73.45569293 40.52121753 71.625 38.5 C66.06429608 32.78309653 59.5669516 28.4686357 53 24 C52.31292969 23.51660156 51.62585938 23.03320312 50.91796875 22.53515625 C36.17810516 12.6531258 17.27623546 5.32123245 0 2 C0 1.34 0 0.68 0 0 Z " fill="#E9B7D2" transform="translate(236,49)"/>
<path d="M0 0 C0.66 0 1.32 0 2 0 C4.44563344 5.70647802 5.42801938 9.79371906 5 16 C4.67 16.66 4.34 17.32 4 18 C3.78942229 19.93322038 3.63138075 21.87228787 3.5 23.8125 C3.4175 24.97007812 3.335 26.12765625 3.25 27.3203125 C3.1675 28.53460938 3.085 29.74890625 3 31 C2.83720766 33.3960997 2.67072943 35.79195276 2.5 38.1875 C2.4278125 39.25355469 2.355625 40.31960937 2.28125 41.41796875 C2 44 2 44 1 46 C0.72620559 48.49457129 0.55450855 50.98892067 0.37890625 53.4921875 C-0.01302227 56.08618866 -0.78612125 57.69812622 -2 60 C-2.7655173 62.57310005 -3.44646811 65.15954003 -4.12109375 67.7578125 C-5 70 -5 70 -8 72 C-8.92078967 74.06654616 -8.92078967 74.06654616 -9.625 76.5625 C-11.46273612 81.96129676 -13.87818115 86.86171909 -16.5625 91.875 C-16.95066895 92.60017822 -17.33883789 93.32535645 -17.73876953 94.07250977 C-26.19687192 109.70460436 -37.27544914 121.73785827 -50 134 C-50.66 133.67 -51.32 133.34 -52 133 C-50.64455078 131.67935547 -50.64455078 131.67935547 -49.26171875 130.33203125 C-48.07004593 129.15912494 -46.87865447 127.98593272 -45.6875 126.8125 C-45.09259766 126.23435547 -44.49769531 125.65621094 -43.88476562 125.06054688 C-40.69663502 121.90803784 -38.1273179 118.99302388 -36 115 C-32.416 109.512 -32.416 109.512 -30.375 107 C-28.85994792 105.00746261 -28.85994792 105.00746261 -28.1796875 102.3671875 C-26.76997139 98.34342826 -24.81788946 94.84008958 -22.75 91.125 C-11.87485088 70.99538074 -7.64381053 50.68926282 -6 28 C-5.34 28 -4.68 28 -4 28 C-4.05220703 26.69289062 -4.05220703 26.69289062 -4.10546875 25.359375 C-4.30294647 16.67035552 -3.9665214 7.93304279 0 0 Z M2 4 C3 7 3 7 3 7 Z M3 8 C4 10 4 10 4 10 Z M-54 134 C-53.34 134.33 -52.68 134.66 -52 135 C-55.57460142 139.51261739 -58.87821583 143.26838177 -64 146 C-64.99 145.67 -65.98 145.34 -67 145 C-62.71 141.37 -58.42 137.74 -54 134 Z " fill="#521D5F" transform="translate(378,163)"/>
<path d="M0 0 C1.87056791 0.2275015 3.74685958 0.40962811 5.625 0.5625 C6.62789062 0.64628906 7.63078125 0.73007812 8.6640625 0.81640625 C9.82035156 0.90728516 9.82035156 0.90728516 11 1 C11 1.66 11 2.32 11 3 C14.50538557 4.96301592 18.13351728 5.95902388 22 7 C22 8.32 22 9.64 22 11 C21.01 11 20.02 11 19 11 C19 10.34 19 9.68 19 9 C17.68 9 16.36 9 15 9 C15 8.34 15 7.68 15 7 C14.01 7 13.02 7 12 7 C12 6.34 12 5.68 12 5 C10.39125 5.0928125 10.39125 5.0928125 8.75 5.1875 C5.15644166 5.2057809 2.26688655 4.5536561 -1.16015625 3.50390625 C-8.71219221 1.55266527 -16.05964832 1.61605951 -23.80395508 1.71875 C-26.22167079 1.750448 -28.63873585 1.75978641 -31.05664062 1.765625 C-32.59375806 1.77477611 -34.13086883 1.78514576 -35.66796875 1.796875 C-36.39074509 1.80112488 -37.11352142 1.80537476 -37.85820007 1.80975342 C-41.21521985 1.56833755 -41.21521985 1.56833755 -44 3 C-46.33297433 3.04092937 -48.66705225 3.04241723 -51 3 C-51 3.66 -51 4.32 -51 5 C-53.64 5.33 -56.28 5.66 -59 6 C-59 6.66 -59 7.32 -59 8 C-60.40185547 8.38478516 -60.40185547 8.38478516 -61.83203125 8.77734375 C-72.4176128 11.81661945 -82.05903823 16.12235481 -91.91552734 20.99902344 C-93.85517087 21.93045216 -95.80803606 22.78761595 -97.79296875 23.6171875 C-100.45175836 24.76360835 -102.8128246 25.95447413 -105.25 27.5 C-105.89453125 27.9021875 -106.5390625 28.304375 -107.203125 28.71875 C-109.00870391 30.00620627 -110.45034816 31.42046507 -112 33 C-114.95361812 34.96907875 -117.49850918 36.35157577 -121 37 C-121 37.66 -121 38.32 -121 39 C-122.43359375 40.41015625 -122.43359375 40.41015625 -124.4375 42.0625 C-129.22341701 46.12068366 -133.6114377 50.52000931 -138 55 C-138 51.40142046 -137.04169485 49.90548882 -135 47 C-134.34 47 -133.68 47 -133 47 C-132.72800781 46.41476563 -132.45601563 45.82953125 -132.17578125 45.2265625 C-126.39602268 34.28150475 -114.10417106 26.09383588 -103.13671875 21.078125 C-101.08551371 20.04314768 -99.58353089 18.95822991 -97.875 17.4375 C-94.12565088 14.25870401 -89.8759767 11.60903036 -85.0078125 10.578125 C-82.88786972 10.09676262 -82.88786972 10.09676262 -81.05078125 8.53515625 C-78.77610539 6.83239889 -76.91576052 6.18938282 -74.1875 5.4375 C-73.30449219 5.19128906 -72.42148438 4.94507813 -71.51171875 4.69140625 C-70.68285156 4.46324219 -69.85398437 4.23507813 -69 4 C-67.2675 3.443125 -67.2675 3.443125 -65.5 2.875 C-61.01830088 1.75457522 -56.59284822 1.39346831 -52 1 C-47.10866359 0.88487324 -47.10866359 0.88487324 -43 -1 C-39.07239678 -1.33604765 -35.13300942 -1.42847214 -31.19360352 -1.55761719 C-29.23357482 -1.6234524 -27.2739932 -1.70219644 -25.31445312 -1.78125 C-4.97186904 -2.48593452 -4.97186904 -2.48593452 0 0 Z M-140 55 C-139.67 55.99 -139.34 56.98 -139 58 C-140.65 59.65 -142.3 61.3 -144 63 C-144.33 62.01 -144.66 61.02 -145 60 C-143.35 58.35 -141.7 56.7 -140 55 Z M-146 63 C-146 66 -146 66 -147.5 67.6875 C-147.995 68.120625 -148.49 68.55375 -149 69 C-148.42655063 66.13275314 -148.1385485 65.1385485 -146 63 Z " fill="#5E2273" transform="translate(250,35)"/>
<path d="M0 0 C3.66875888 13.03143154 -0.38917578 29.30795287 -4 42 C-4.45052734 43.66482422 -4.45052734 43.66482422 -4.91015625 45.36328125 C-6.06423377 49.21434279 -7.43473025 52.9002508 -8.9375 56.625 C-9.18951172 57.26695312 -9.44152344 57.90890625 -9.70117188 58.5703125 C-11.18352412 62.27050635 -12.87385197 65.63260912 -15 69 C-16.31382835 71.57053373 -17.61348428 74.13981305 -18.796875 76.7734375 C-21.73686149 83.09182951 -25.7984753 88.46667124 -30 94 C-30.87011719 95.16402344 -30.87011719 95.16402344 -31.7578125 96.3515625 C-43.17387468 111.37828621 -56.31033315 122.71498006 -72 133 C-72.71510742 133.48662109 -73.43021484 133.97324219 -74.16699219 134.47460938 C-74.87243164 134.94189453 -75.57787109 135.40917969 -76.3046875 135.890625 C-76.94132324 136.31891602 -77.57795898 136.74720703 -78.23388672 137.18847656 C-80 138 -80 138 -83 137 C-82.0409375 136.5978125 -82.0409375 136.5978125 -81.0625 136.1875 C-78.66868314 135.11332248 -78.66868314 135.11332248 -78 132 C-75.84765625 130.67578125 -75.84765625 130.67578125 -73.0625 129.3125 C-67.07932915 126.18141059 -62.11802251 122.37590925 -57 118 C-56.2884375 117.41089844 -55.576875 116.82179688 -54.84375 116.21484375 C-50.78572062 112.78893049 -47.22067878 109.15602951 -43.7890625 105.10546875 C-41.26082512 102.13009769 -38.62168726 99.25699701 -35.9921875 96.37109375 C-31.36580975 90.86479709 -27.987856 85.31228509 -25.0625 78.75 C-22.75001251 73.68010463 -20.37425336 68.72820521 -17.625 63.875 C-15.9393336 60.89789562 -14.66464903 58.26627911 -13.875 54.9375 C-13.58625 53.968125 -13.2975 52.99875 -13 52 C-12.319375 51.67 -11.63875 51.34 -10.9375 51 C-9.9784375 50.505 -9.9784375 50.505 -9 50 C-8.31126713 46.68203915 -8.31126713 46.68203915 -8 43 C-6.31578947 37.31578947 -6.31578947 37.31578947 -5 36 C-4.79160985 34.35892758 -4.63248275 32.71143707 -4.5 31.0625 C-4.10977702 26.21955403 -4.10977702 26.21955403 -3 24 C-2.79100182 22.27413221 -2.63217312 20.54203834 -2.5 18.80859375 C-2.4175 17.78185547 -2.335 16.75511719 -2.25 15.69726562 C-2.0830355 13.52020511 -1.91636989 11.34312166 -1.75 9.16601562 C-1.6675 8.14056641 -1.585 7.11511719 -1.5 6.05859375 C-1.4278125 5.11298584 -1.355625 4.16737793 -1.28125 3.19311523 C-1 1 -1 1 0 0 Z " fill="#481A50" transform="translate(382,183)"/>
<path d="M0 0 C3.28778062 0.32960207 6.5682872 0.50465102 9.8671875 0.6875 C16.49630459 1.18826064 21.52564843 2.58480728 27.1171875 6.3125 C29.50395826 6.60702584 31.90344844 6.8053217 34.3046875 6.9375 C35.57699219 7.01226562 36.84929687 7.08703125 38.16015625 7.1640625 C39.13597656 7.21304688 40.11179687 7.26203125 41.1171875 7.3125 C41.1171875 7.9725 41.1171875 8.6325 41.1171875 9.3125 C43.0971875 9.3125 45.0771875 9.3125 47.1171875 9.3125 C47.1171875 9.9725 47.1171875 10.6325 47.1171875 11.3125 C44.8071875 11.3125 42.4971875 11.3125 40.1171875 11.3125 C40.1171875 11.9725 40.1171875 12.6325 40.1171875 13.3125 C41.4371875 13.3125 42.7571875 13.3125 44.1171875 13.3125 C44.1171875 13.9725 44.1171875 14.6325 44.1171875 15.3125 C44.8596875 15.250625 45.6021875 15.18875 46.3671875 15.125 C49.71206656 15.35305994 50.46650906 16.32449117 53.1171875 18.3125 C56.07505491 19.4525114 59.08274403 20.39827665 62.1171875 21.3125 C62.1171875 21.9725 62.1171875 22.6325 62.1171875 23.3125 C63.6021875 23.8075 63.6021875 23.8075 65.1171875 24.3125 C65.1171875 25.3025 65.1171875 26.2925 65.1171875 27.3125 C64.1271875 27.3125 63.1371875 27.3125 62.1171875 27.3125 C62.1171875 26.6525 62.1171875 25.9925 62.1171875 25.3125 C61.53839844 25.18875 60.95960938 25.065 60.36328125 24.9375 C58.0820003 24.30270878 56.26002491 23.43299856 54.1796875 22.3125 C51.16653187 20.75804962 48.51702131 19.73747923 45.1171875 19.3125 C45.1171875 18.6525 45.1171875 17.9925 45.1171875 17.3125 C44.1271875 17.3125 43.1371875 17.3125 42.1171875 17.3125 C42.1171875 16.6525 42.1171875 15.9925 42.1171875 15.3125 C40.1371875 15.3125 38.1571875 15.3125 36.1171875 15.3125 C36.1171875 14.6525 36.1171875 13.9925 36.1171875 13.3125 C34.786875 13.43625 34.786875 13.43625 33.4296875 13.5625 C29.40285385 13.25858803 27.93482157 12.13013407 25.1171875 9.3125 C25.1171875 8.6525 25.1171875 7.9925 25.1171875 7.3125 C24.03050781 7.32990234 24.03050781 7.32990234 22.921875 7.34765625 C17.8497369 7.39499621 13.10757316 7.31057713 8.1171875 6.3125 C0.55410182 5.02632256 -6.86154397 5.3459112 -14.5078125 5.625 C-16.45300781 5.67817383 -16.45300781 5.67817383 -18.4375 5.73242188 C-19.69046875 5.77560547 -20.9434375 5.81878906 -22.234375 5.86328125 C-23.36697754 5.90106689 -24.49958008 5.93885254 -25.66650391 5.9777832 C-28.98813149 6.3234604 -31.73628839 7.23281035 -34.8828125 8.3125 C-37.7578125 7.9375 -37.7578125 7.9375 -39.8828125 7.3125 C-38.8828125 5.3125 -38.8828125 5.3125 -36.0703125 4.1875 C-32.8828125 3.3125 -32.8828125 3.3125 -28.8828125 3.3125 C-28.8828125 2.6525 -28.8828125 1.9925 -28.8828125 1.3125 C-26.77929327 1.07111255 -24.67543738 0.83242753 -22.5703125 0.60546875 C-20.79806794 0.41227349 -19.0271118 0.20681078 -17.2578125 -0.01171875 C-11.37689231 -0.66990313 -5.88397279 -0.61132185 0 0 Z " fill="#58206A" transform="translate(235.8828125,28.6875)"/>
<path d="M0 0 C0.75884491 -0.0033284 1.51768982 -0.0066568 2.29953003 -0.01008606 C3.91192009 -0.01516141 5.52432071 -0.0174942 7.13671875 -0.01733398 C9.58611865 -0.01950373 12.0350559 -0.03760575 14.484375 -0.05664062 C16.0520818 -0.05957791 17.61979073 -0.06156046 19.1875 -0.0625 C20.27697433 -0.07327827 20.27697433 -0.07327827 21.38845825 -0.08427429 C26.08807191 -0.06352882 30.03022539 0.73917451 34.4921875 2.16796875 C36.79808178 2.58165078 39.11100529 2.95831359 41.4296875 3.29296875 C42.57308594 3.46054687 43.71648437 3.628125 44.89453125 3.80078125 C45.75175781 3.92195313 46.60898437 4.043125 47.4921875 4.16796875 C47.4921875 4.82796875 47.4921875 5.48796875 47.4921875 6.16796875 C48.4821875 6.16796875 49.4721875 6.16796875 50.4921875 6.16796875 C50.4921875 6.82796875 50.4921875 7.48796875 50.4921875 8.16796875 C51.8121875 8.16796875 53.1321875 8.16796875 54.4921875 8.16796875 C54.4921875 8.82796875 54.4921875 9.48796875 54.4921875 10.16796875 C55.1521875 9.50796875 55.8121875 8.84796875 56.4921875 8.16796875 C60.1171875 8.04296875 60.1171875 8.04296875 63.4921875 8.16796875 C63.4921875 8.82796875 63.4921875 9.48796875 63.4921875 10.16796875 C64.4821875 10.16796875 65.4721875 10.16796875 66.4921875 10.16796875 C66.4921875 10.82796875 66.4921875 11.48796875 66.4921875 12.16796875 C67.18699219 12.10609375 67.88179688 12.04421875 68.59765625 11.98046875 C72.25127852 12.21714064 74.57708588 13.46549757 77.8046875 15.16796875 C79.40763672 16.00328125 79.40763672 16.00328125 81.04296875 16.85546875 C82.25533203 17.50515625 82.25533203 17.50515625 83.4921875 18.16796875 C83.4921875 18.82796875 83.4921875 19.48796875 83.4921875 20.16796875 C84.8121875 20.16796875 86.1321875 20.16796875 87.4921875 20.16796875 C87.9871875 23.13796875 87.9871875 23.13796875 88.4921875 26.16796875 C89.1521875 26.16796875 89.8121875 26.16796875 90.4921875 26.16796875 C90.4921875 27.15796875 90.4921875 28.14796875 90.4921875 29.16796875 C87.19349069 27.93454298 84.36890147 26.53381287 81.4296875 24.60546875 C66.84498939 15.78129489 51.00527448 10.13010383 34.4921875 6.16796875 C32.84283203 5.76771484 32.84283203 5.76771484 31.16015625 5.359375 C16.16687458 2.44903251 -0.59809137 3.21564335 -15.6171875 5.73046875 C-18.30248892 6.13689275 -20.79794624 6.24826108 -23.5078125 6.16796875 C-20.41971555 4.40334192 -19.27469114 4.16796875 -15.5078125 4.16796875 C-15.5078125 3.50796875 -15.5078125 2.84796875 -15.5078125 2.16796875 C-13.80625 1.95140625 -13.80625 1.95140625 -12.0703125 1.73046875 C-1.12137954 0.00168986 -1.12137954 0.00168986 0 0 Z " fill="#6E2983" transform="translate(214.5078125,35.83203125)"/>
<path d="M0 0 C2.475 0.495 2.475 0.495 5 1 C4.835 2.093125 4.67 3.18625 4.5 4.3125 C3.93281816 7.87525873 3.93281816 7.87525873 4 11 C3.35898515 12.3458537 2.68913359 13.67813877 2 15 C1.46590223 16.55801578 0.94651522 18.12111016 0.4375 19.6875 C-7.71467578 42.56917519 -22.77672336 60.40261582 -40 77 C-40.66 76.67 -41.32 76.34 -42 76 C-40.64455078 74.67935547 -40.64455078 74.67935547 -39.26171875 73.33203125 C-38.07004593 72.15912494 -36.87865447 70.98593272 -35.6875 69.8125 C-35.09259766 69.23435547 -34.49769531 68.65621094 -33.88476562 68.06054688 C-30.69663502 64.90803784 -28.1273179 61.99302388 -26 58 C-22.416 52.512 -22.416 52.512 -20.375 50 C-18.85994792 48.00746261 -18.85994792 48.00746261 -18.1796875 45.3671875 C-16.77004309 41.34363291 -14.81863328 37.83953653 -12.75 34.125 C-6.89390091 23.33117415 -2.16930585 12.14811275 0 0 Z M-44 77 C-43.34 77.33 -42.68 77.66 -42 78 C-45.57460142 82.51261739 -48.87821583 86.26838177 -54 89 C-54.99 88.67 -55.98 88.34 -57 88 C-52.71 84.37 -48.42 80.74 -44 77 Z " fill="#5C1F6B" transform="translate(368,220)"/>
<path d="M0 0 C9.71428571 1.71428571 9.71428571 1.71428571 13 5 C14.96488831 5.88778692 14.96488831 5.88778692 17.125 6.625 C17.84945312 6.88539063 18.57390625 7.14578125 19.3203125 7.4140625 C19.87460938 7.60742188 20.42890625 7.80078125 21 8 C21 7.34 21 6.68 21 6 C24.71599191 5.79913557 25.77208445 5.8480563 29 8 C29.33 7.34 29.66 6.68 30 6 C30.55945313 6.14147461 31.11890625 6.28294922 31.6953125 6.42871094 C39.16160545 8.13623533 46.36407053 8.29894827 54 8.25 C55.2065625 8.25773437 56.413125 8.26546875 57.65625 8.2734375 C63.93239812 8.2597937 69.69912989 7.84732965 75.81542969 6.4453125 C78.93577861 5.80924674 81.94988956 5.80744446 85.125 5.875 C86.24132812 5.89304687 87.35765625 5.91109375 88.5078125 5.9296875 C89.74144531 5.96449219 89.74144531 5.96449219 91 6 C90.67 6.66 90.34 7.32 90 8 C87.734375 8.2734375 87.734375 8.2734375 84.75 8.375 C80.11974585 8.6566061 76.49898966 9.44862852 72.1875 11.125 C63.17784478 14.14633191 53.97759532 12.81066812 44.64160156 12.15380859 C40.26016014 11.89869694 35.90888074 12.00996984 31.5234375 12.16015625 C29 12 29 12 26.49609375 10.97265625 C23.57427127 9.8341057 21.77206307 9.96372492 18.6875 10.375 C17.80449219 10.48585938 16.92148438 10.59671875 16.01171875 10.7109375 C15.34785156 10.80632812 14.68398437 10.90171875 14 11 C14 10.01 14 9.02 14 8 C11.69 8 9.38 8 7 8 C7 7.34 7 6.68 7 6 C6.401875 5.71125 5.80375 5.4225 5.1875 5.125 C3 4 3 4 0 2 C0 1.34 0 0.68 0 0 Z " fill="#5C206C" transform="translate(174,323)"/>
<path d="M0 0 C-5.7871019 3.11518464 -11.37252497 5.57381493 -17.7109375 7.3203125 C-20.21844346 8.00834209 -20.21844346 8.00834209 -23.3125 9.5 C-33.26735215 13.54943138 -44.47149269 14.94672264 -55 17 C-55 16.34 -55 15.68 -55 15 C-55.54277588 15.32524658 -56.08555176 15.65049316 -56.64477539 15.9855957 C-59.48892438 17.21058161 -61.59161058 17.24324244 -64.68359375 17.23046875 C-65.77607422 17.22853516 -66.86855469 17.22660156 -67.99414062 17.22460938 C-69.69860352 17.20624023 -69.69860352 17.20624023 -71.4375 17.1875 C-73.13616211 17.1865332 -73.13616211 17.1865332 -74.86914062 17.18554688 C-79.73512808 17.15974022 -84.2385348 17.06525273 -89 16 C-90.43540577 15.79708924 -91.87291997 15.60829763 -93.3125 15.4375 C-94.529375 15.293125 -95.74625 15.14875 -97 15 C-97 14.34 -97 13.68 -97 13 C-98.65 13 -100.3 13 -102 13 C-102.33 12.34 -102.66 11.68 -103 11 C-102.01 10.67 -101.02 10.34 -100 10 C-99.43667969 10.30808594 -98.87335938 10.61617188 -98.29296875 10.93359375 C-95.00678199 12.46192251 -91.8575012 12.16340434 -88.3125 12.0625 C-79.3838416 11.91919939 -70.50918384 12.26140129 -61.59301758 12.73266602 C-56.23587463 12.98756542 -51.26424673 13.09944849 -46 12 C-45.67 11.67 -45.34 11.34 -45 11 C-43.6656048 11.03276417 -42.33205199 11.10193416 -41 11.1875 C-36.35409718 11.25387004 -33.23007493 10.03974385 -29.109375 8.0078125 C-26.17559927 6.60611965 -23.13095475 5.86371166 -20 5 C-13.1206013 2.62401653 -13.1206013 2.62401653 -6.4140625 -0.1875 C-3.75940567 -1.08097673 -2.58585211 -0.957723 0 0 Z " fill="#491A51" transform="translate(299,322)"/>
<path d="M0 0 C2.97 0 5.94 0 9 0 C9 0.66 9 1.32 9 2 C9.66 1.34 10.32 0.68 11 0 C14.625 -0.125 14.625 -0.125 18 0 C18 0.66 18 1.32 18 2 C18.99 2 19.98 2 21 2 C21 2.66 21 3.32 21 4 C21.69480469 3.938125 22.38960938 3.87625 23.10546875 3.8125 C26.75909102 4.04917189 29.08489838 5.29752882 32.3125 7 C33.91544922 7.8353125 33.91544922 7.8353125 35.55078125 8.6875 C36.76314453 9.3371875 36.76314453 9.3371875 38 10 C38 10.66 38 11.32 38 12 C39.32 12 40.64 12 42 12 C42.495 14.97 42.495 14.97 43 18 C43.66 18 44.32 18 45 18 C45 18.99 45 19.98 45 21 C41.70130319 19.76657423 38.87671397 18.36584412 35.9375 16.4375 C30.8073928 13.30543455 25.46660837 10.78951747 20 8.3125 C19.16976318 7.932146 18.33952637 7.55179199 17.48413086 7.15991211 C11.77407937 4.61045128 6.02807391 2.65691872 0 1 C0 0.67 0 0.34 0 0 Z " fill="#73288B" transform="translate(260,44)"/>
<path d="M0 0 C9 3 9 3 10.94897461 3.68261719 C16.78844354 5.69716591 22.67306604 7.22809921 28.6875 8.625 C30.05358398 8.94984375 30.05358398 8.94984375 31.44726562 9.28125 C39.41457161 11.15591023 46.75009351 12.166429 54.9375 12.125 C56.31844849 12.12209961 56.31844849 12.12209961 57.72729492 12.11914062 C65.51682584 12.07044338 73.23962102 11.66755948 81 11 C79.6953125 12.4921875 79.6953125 12.4921875 78 14 C74.875 14.125 74.875 14.125 72 14 C71.67 14.33 71.34 14.66 71 15 C68.54917045 15.12579108 66.1280718 15.18864456 63.67578125 15.203125 C62.93676071 15.20882507 62.19774017 15.21452515 61.43632507 15.22039795 C59.86682574 15.22986503 58.29730638 15.23638868 56.7277832 15.24023438 C54.33964552 15.24989024 51.95238674 15.28087501 49.56445312 15.3125 C48.03906761 15.31903498 46.51367593 15.3242835 44.98828125 15.328125 C44.27867752 15.3404718 43.56907379 15.3528186 42.83796692 15.36553955 C38.11397735 15.34459916 35.0855785 14.2938388 31 12 C27.7633037 11.29241674 27.7633037 11.29241674 25 11 C25 10.34 25 9.68 25 9 C24.01 9 23.02 9 22 9 C22 9.66 22 10.32 22 11 C19.81081411 10.51351425 17.91080722 9.95802693 15.875 9 C11.67213858 7.53813516 7.41835621 7.32601463 3 7 C2.01 4.69 1.02 2.38 0 0 Z " fill="#7A2793" transform="translate(174,314)"/>
<path d="M0 0 C0.33 0 0.66 0 1 0 C1 3.33333333 1 6.66666667 1 10 C1.66 8.02 2.32 6.04 3 4 C5.87497489 6.87497489 5.88759308 9.08201015 6.375 13.0625 C5.92761282 17.76006543 4.29745966 20.99769594 2.24609375 25.19921875 C0.51900459 29.0811088 -0.24776491 32.8285145 -1 37 C-1.33 37 -1.66 37 -2 37 C-2.50610903 33.77176021 -3.00379907 30.54227635 -3.5 27.3125 C-3.71462891 25.94448242 -3.71462891 25.94448242 -3.93359375 24.54882812 C-4.06894531 23.66259766 -4.20429688 22.77636719 -4.34375 21.86328125 C-4.46943359 21.05157471 -4.59511719 20.23986816 -4.72460938 19.40356445 C-5.00977723 16.91466595 -5.04674739 14.50293311 -5 12 C-4.34 12 -3.68 12 -3 12 C-2.01 8.04 -1.02 4.08 0 0 Z " fill="#6B2481" transform="translate(373,143)"/>
<path d="M0 0 C4.11840749 2.03150145 8.18088855 4.1304851 12.1875 6.375 C13.21230469 6.93960937 14.23710937 7.50421875 15.29296875 8.0859375 C18.23756608 10.16797601 19.52670011 11.72937549 21 15 C21 16.32 21 17.64 21 19 C12.85614849 19.62645012 12.85614849 19.62645012 9.4375 17.125 C8 15 8 15 8 13 C7.01 12.67 6.02 12.34 5 12 C3 9 3 9 3 5 C2.01 4.67 1.02 4.34 0 4 C0 2.68 0 1.36 0 0 Z " fill="#6F2486" transform="translate(156,304)"/>
<path d="M0 0 C1.1484375 1.703125 1.1484375 1.703125 2 4 C1.1015625 6.234375 1.1015625 6.234375 -0.375 8.75 C-3.62386985 15.40579284 -3.28971565 21.4386054 -3.04199219 28.63867188 C-2.96194649 33.13984644 -3.17316684 37.62912723 -3.375 42.125 C-3.42188965 43.45797119 -3.42188965 43.45797119 -3.46972656 44.81787109 C-3.68431952 49.55424426 -4.20399268 53.54648591 -6 58 C-6.99 58 -7.98 58 -9 58 C-8.125 50.25 -8.125 50.25 -7 48 C-6.87823497 46.19051505 -6.82454208 44.37603729 -6.8125 42.5625 C-6.79832031 41.59441406 -6.78414063 40.62632812 -6.76953125 39.62890625 C-6.80850549 36.76733273 -6.80850549 36.76733273 -9 34 C-8.9765625 31.51953125 -8.9765625 31.51953125 -8.625 28.8125 C-8.51414062 27.91144531 -8.40328125 27.01039063 -8.2890625 26.08203125 C-8.19367188 25.39496094 -8.09828125 24.70789063 -8 24 C-7.34 24 -6.68 24 -6 24 C-6.05220703 23.02160156 -6.05220703 23.02160156 -6.10546875 22.0234375 C-6.27952037 16.40405663 -5.86619277 12.96071826 -3 8 C-2.31320058 5.67251306 -1.64238957 3.34013344 -1 1 C-0.67 0.67 -0.34 0.34 0 0 Z " fill="#531F64" transform="translate(83,142)"/>
<path d="M0 0 C0.66 0.33 1.32 0.66 2 1 C-1 4 -4 7 -7 10 C-7.71671875 10.75796875 -8.4334375 11.5159375 -9.171875 12.296875 C-11 14 -11 14 -13 14 C-13 14.66 -13 15.32 -13 16 C-14.43359375 17.41015625 -14.43359375 17.41015625 -16.4375 19.0625 C-21.22341701 23.12068366 -25.6114377 27.52000931 -30 32 C-30 28.40142046 -29.04169485 26.90548882 -27 24 C-26.34 24 -25.68 24 -25 24 C-24.72800781 23.41476563 -24.45601563 22.82953125 -24.17578125 22.2265625 C-19.08134841 12.57929765 -8.86595109 5.91063406 0 0 Z M-32 32 C-31.67 32.99 -31.34 33.98 -31 35 C-32.65 36.65 -34.3 38.3 -36 40 C-36.33 39.01 -36.66 38.02 -37 37 C-35.35 35.35 -33.7 33.7 -32 32 Z M-38 40 C-38 43 -38 43 -39.5 44.6875 C-39.995 45.120625 -40.49 45.55375 -41 46 C-40.42655063 43.13275314 -40.1385485 42.1385485 -38 40 Z " fill="#57206A" transform="translate(142,58)"/>
<path d="M0 0 C2.475 0.495 2.475 0.495 5 1 C4.835 2.093125 4.67 3.18625 4.5 4.3125 C3.93281816 7.87525873 3.93281816 7.87525873 4 11 C2.70515494 14.09254257 0.88188607 16.58037481 -1.125 19.25 C-4.78777554 24.36262419 -7.48665527 29.7532178 -10.07080078 35.46582031 C-12.07797051 39.7395543 -13.97865655 42.28663677 -18 45 C-16.70755478 41.4985285 -15.10625355 38.29406129 -13.28369141 35.03955078 C-7.13901234 24.03021318 -2.22675471 12.46982637 0 0 Z " fill="#682677" transform="translate(368,220)"/>
<path d="M0 0 C3.28778062 0.32960207 6.5682872 0.50465102 9.8671875 0.6875 C15.16236237 1.07619515 19.28919255 2.13516894 24.1171875 4.3125 C24.1171875 4.6425 24.1171875 4.9725 24.1171875 5.3125 C22.55478718 5.33980408 20.9922448 5.35903226 19.4296875 5.375 C18.55957031 5.38660156 17.68945312 5.39820313 16.79296875 5.41015625 C14.1171875 5.3125 14.1171875 5.3125 11.76196289 4.81030273 C9.13264588 4.31540959 6.79583557 4.21319614 4.125 4.25 C2.70586304 4.26256836 2.70586304 4.26256836 1.25805664 4.27539062 C0.26281982 4.28763672 -0.73241699 4.29988281 -1.7578125 4.3125 C-10.85503097 4.37579 -19.82033402 4.11423585 -28.8828125 3.3125 C-28.8828125 2.6525 -28.8828125 1.9925 -28.8828125 1.3125 C-26.77929327 1.07111255 -24.67543738 0.83242753 -22.5703125 0.60546875 C-20.79806794 0.41227349 -19.0271118 0.20681078 -17.2578125 -0.01171875 C-11.37689231 -0.66990313 -5.88397279 -0.61132185 0 0 Z " fill="#481C56" transform="translate(235.8828125,28.6875)"/>
<path d="M0 0 C0.33 0 0.66 0 1 0 C1.10061436 4.158469 1.17226724 8.31625052 1.21972656 12.47558594 C1.2395576 13.8835894 1.26663147 15.29151382 1.30175781 16.69921875 C1.54061598 26.53455497 1.10678131 35.84364217 -3 45 C-4.485 45.495 -4.485 45.495 -6 46 C-5.86722656 44.99582031 -5.73445313 43.99164063 -5.59765625 42.95703125 C-4.47505721 34.31577742 -3.56604776 25.69926038 -3 17 C-2.34 17 -1.68 17 -1 17 C-1.01160156 16.02417969 -1.02320313 15.04835937 -1.03515625 14.04296875 C-1.04417969 12.77066406 -1.05320312 11.49835938 -1.0625 10.1875 C-1.07410156 8.92292969 -1.08570313 7.65835938 -1.09765625 6.35546875 C-1 3 -1 3 0 0 Z " fill="#67227C" transform="translate(375,174)"/>
<path d="M0 0 C9.71428571 1.71428571 9.71428571 1.71428571 13 5 C18.20194143 7.6158334 23.97622436 8.04016352 29.66992188 8.85546875 C30.45302734 8.97535156 31.23613281 9.09523438 32.04296875 9.21875 C32.75477295 9.32123047 33.46657715 9.42371094 34.19995117 9.52929688 C36 10 36 10 38 12 C29.74285714 12.32380952 29.74285714 12.32380952 26.5625 10.9375 C22.411462 9.41882756 18.30593976 10.38128244 14 11 C14 10.01 14 9.02 14 8 C11.69 8 9.38 8 7 8 C7 7.34 7 6.68 7 6 C6.401875 5.71125 5.80375 5.4225 5.1875 5.125 C3 4 3 4 0 2 C0 1.34 0 0.68 0 0 Z " fill="#501D5C" transform="translate(174,323)"/>
<path d="M0 0 C0 3 0 3 -1.4375 5.75 C-3.14976441 8.8668903 -3.14976441 8.8668903 -3.375 12.0625 C-4.32282016 18.03376701 -6.72620821 23.42040022 -9 29 C-9.66 29 -10.32 29 -11 29 C-11.99 31.475 -11.99 31.475 -13 34 C-13.66 33.34 -14.32 32.68 -15 32 C-12.71803547 24.68734095 -10.27174299 17.40761448 -6 11 C-5.71125 10.05125 -5.4225 9.1025 -5.125 8.125 C-3.91709103 4.76969729 -2.34444847 2.6570416 0 0 Z " fill="#5D2171" transform="translate(98,109)"/>
<path d="M0 0 C0.66 0.33 1.32 0.66 2 1 C-1.22040726 5.32742225 -4.18511808 7.94292595 -8.828125 10.6484375 C-11.2083174 12.12963637 -13.32257536 13.7980352 -15.5 15.5625 C-19.4946133 18.72087073 -23.28719139 21.0498723 -28 23 C-31 22 -31 22 -33 20 C-32.19820313 19.71769531 -31.39640625 19.43539063 -30.5703125 19.14453125 C-19.55650869 14.88635994 -8.41539139 8.41539139 0 0 Z " fill="#742786" transform="translate(317,296)"/>
<path d="M0 0 C0.66 0.33 1.32 0.66 2 1 C1.69320312 1.99128906 1.38640625 2.98257813 1.0703125 4.00390625 C-0.05698178 7.94943623 -0.63802944 11.87009837 -1.125 15.9375 C-1.21136719 16.62134766 -1.29773438 17.30519531 -1.38671875 18.00976562 C-1.59602285 19.67257046 -1.79871722 21.33620513 -2 23 C-2.66 23 -3.32 23 -4 23 C-3.98952637 23.77714355 -3.97905273 24.55428711 -3.96826172 25.35498047 C-3.92679718 28.861621 -3.90070422 32.36821006 -3.875 35.875 C-3.85824219 37.09832031 -3.84148437 38.32164062 -3.82421875 39.58203125 C-3.81777344 40.74863281 -3.81132813 41.91523438 -3.8046875 43.1171875 C-3.79421387 44.19597168 -3.78374023 45.27475586 -3.77294922 46.38623047 C-4 49 -4 49 -6 51 C-6.02902996 46.75001434 -6.04680887 42.50005419 -6.0625 38.25 C-6.07087891 37.0434375 -6.07925781 35.836875 -6.08789062 34.59375 C-6.09111328 33.43359375 -6.09433594 32.2734375 -6.09765625 31.078125 C-6.10289307 30.00981445 -6.10812988 28.94150391 -6.11352539 27.84082031 C-6.01503008 25.37610765 -5.71565464 23.34754533 -5 21 C-4.34 21 -3.68 21 -3 21 C-3.33 20.34 -3.66 19.68 -4 19 C-4.13415472 16.3276379 -4.04318541 13.67749512 -4 11 C-3.34 11 -2.68 11 -2 11 C-2.04125 9.741875 -2.0825 8.48375 -2.125 7.1875 C-2.2390374 3.70935927 -2.05925681 3.08888522 0 0 Z " fill="#451B51" transform="translate(79,143)"/>
<path d="M0 0 C0.33 0 0.66 0 1 0 C0.98952637 0.68400879 0.97905273 1.36801758 0.96826172 2.07275391 C0.63283133 19.17926278 0.63283133 19.17926278 2.5625 36.1328125 C3.06903967 39.45245638 3.06689095 42.64709107 3 46 C2.01 44.68 1.02 43.36 0 42 C-0.66 42.66 -1.32 43.32 -2 44 C-1.91621094 42.75863281 -1.83242187 41.51726562 -1.74609375 40.23828125 C-1.64288825 38.59637556 -1.54004258 36.95444722 -1.4375 35.3125 C-1.38142578 34.49587891 -1.32535156 33.67925781 -1.26757812 32.83789062 C-1.01658429 28.70485877 -0.88872257 25.04175718 -2 21 C-2.33 21 -2.66 21 -3 21 C-3.02693575 18.87506859 -3.04636628 16.75004088 -3.0625 14.625 C-3.07410156 13.44164062 -3.08570312 12.25828125 -3.09765625 11.0390625 C-3 8 -3 8 -2 6 C-1.34 6 -0.68 6 0 6 C0 4.02 0 2.04 0 0 Z " fill="#78298E" transform="translate(84,160)"/>
<path d="M0 0 C0.33 0.99 0.66 1.98 1 3 C-0.14995248 4.46938372 -1.30820368 5.93765455 -2.578125 7.3046875 C-4.10376132 9.01818082 -4.10376132 9.01818082 -5.3046875 11.31640625 C-7.44067451 14.6975654 -10.02507533 17.27909691 -12.875 20.0625 C-13.39191406 20.57876953 -13.90882813 21.09503906 -14.44140625 21.62695312 C-22.80281317 29.89358339 -22.80281317 29.89358339 -26.8125 30.25 C-27.534375 30.1675 -28.25625 30.085 -29 30 C-26.11935108 27.00519949 -23.08360056 24.43334993 -19.8125 21.875 C-12.01922477 15.54881663 -5.6014358 8.31180796 0 0 Z " fill="#68237B" transform="translate(349,265)"/>
<path d="M0 0 C3 2 3 2 3.43359375 4.1015625 C3.44341869 10.44847284 2.23612449 14.59071162 -1 20 C-1.67597415 21.32863884 -2.34515838 22.6608194 -3 24 C-3.22786458 22.046875 -3.45572917 20.09375 -3.68359375 18.140625 C-3.92451462 16.0093358 -3.92451462 16.0093358 -4.6875 14.125 C-5.16464851 10.88039013 -3.87959158 8.70542502 -2.5625 5.75 C-2.08941406 4.67234375 -1.61632812 3.5946875 -1.12890625 2.484375 C-0.75636719 1.66453125 -0.38382812 0.8446875 0 0 Z " fill="#5A206D" transform="translate(80,194)"/>
<path d="M0 0 C1.81595312 3.06571553 2.15458222 4.75854611 1.5625 8.25 C0.94866674 12.95140471 1.1662369 17.41991997 1.5625 22.125 C2.027032 27.85155824 1.93046144 32.54928535 0 38 C-2.13112444 34.51972776 -2.25744021 31.73684299 -2.265625 27.6953125 C-2.26820313 26.47199219 -2.27078125 25.24867188 -2.2734375 23.98828125 C-2.26570313 22.71339844 -2.25796875 21.43851563 -2.25 20.125 C-2.25773437 18.85785156 -2.26546875 17.59070313 -2.2734375 16.28515625 C-2.27085937 15.05925781 -2.26828125 13.83335937 -2.265625 12.5703125 C-2.26336914 11.45414551 -2.26111328 10.33797852 -2.25878906 9.18798828 C-1.98744079 5.84528472 -1.18697021 3.12537389 0 0 Z " fill="#5C206C" transform="translate(377,165)"/>
<path d="M0 0 C0.33 0 0.66 0 1 0 C1.1363128 1.56002428 1.23259126 3.12357176 1.3125 4.6875 C1.39951172 5.99267578 1.39951172 5.99267578 1.48828125 7.32421875 C0.80224596 11.08369216 -1.26509115 12.38586348 -4 15 C-5.55864985 17.33039215 -6.87113241 19.77635798 -8.1875 22.25 C-11.74740484 28.87370242 -11.74740484 28.87370242 -14 30 C-12.46683174 25.95456097 -10.59856692 22.16052459 -8.625 18.3125 C-6.04149425 13.23205272 -3.73103753 8.13533045 -1.7265625 2.79296875 C-1 1 -1 1 0 0 Z " fill="#4F1C5A" transform="translate(371,233)"/>
<path d="M0 0 C0 0.99 0 1.98 0 3 C-0.51949219 3.25394531 -1.03898437 3.50789063 -1.57421875 3.76953125 C-4.76915689 5.34633066 -7.8573226 6.91005121 -10.875 8.8125 C-11.57625 9.204375 -12.2775 9.59625 -13 10 C-13.66 9.67 -14.32 9.34 -15 9 C-17.03144641 9.93446535 -19.03533587 10.93224776 -21 12 C-20.6370113 9.3683319 -20.2794208 8.24684259 -18.2578125 6.4609375 C-15.87599569 4.91976191 -13.85411338 4.1814172 -11.125 3.4375 C-10.25359375 3.19257812 -9.3821875 2.94765625 -8.484375 2.6953125 C-7.66453125 2.46585938 -6.8446875 2.23640625 -6 2 C-3.99657266 1.34370484 -1.99468882 0.68239354 0 0 Z " fill="#552067" transform="translate(187,37)"/>
<path d="M0 0 C-0.51046875 0.32871094 -1.0209375 0.65742187 -1.546875 0.99609375 C-9.74996552 6.36300936 -17.76461227 12.07615831 -25.125 18.5625 C-28 21 -28 21 -30 21 C-27.66662716 16.16658483 -25.68914345 13.66428605 -21 11 C-17.07176109 8.56035588 -17.07176109 8.56035588 -13.6015625 5.546875 C-11.71742162 3.72707064 -9.77732928 2.54048659 -7.5 1.25 C-6.7265625 0.80140625 -5.953125 0.3528125 -5.15625 -0.109375 C-3 -1 -3 -1 0 0 Z " fill="#6E2881" transform="translate(155,58)"/>
<path d="M0 0 C0.66 0 1.32 0 2 0 C0.35 9.24 -1.3 18.48 -3 28 C-5.81619224 22.36761551 -6.25477081 20.21277613 -4.53515625 14.0859375 C-3.88848761 11.7569363 -3.88848761 11.7569363 -3.5625 8.3125 C-2.97555182 4.85602738 -2.10816363 2.78277599 0 0 Z " fill="#6A257F" transform="translate(87,138)"/>
<path d="M0 0 C4.29 0 8.58 0 13 0 C13 0.66 13 1.32 13 2 C14.98 2 16.96 2 19 2 C19 2.66 19 3.32 19 4 C16.69 4 14.38 4 12 4 C11.67 4.66 11.34 5.32 11 6 C9.02 5.34 7.04 4.68 5 4 C5 3.34 5 2.68 5 2 C3.35 2 1.7 2 0 2 C0 1.34 0 0.68 0 0 Z " fill="#4C1D5A" transform="translate(264,36)"/>
<path d="M0 0 C0.33 0 0.66 0 1 0 C1.125 7.75 1.125 7.75 0 10 C-0.20222356 11.66272703 -0.36411387 13.33054185 -0.5 15 C-0.88888889 19.77777778 -0.88888889 19.77777778 -2 22 C-2.66 22 -3.32 22 -4 22 C-4.33 18.7 -4.66 15.4 -5 12 C-4.34 12 -3.68 12 -3 12 C-2.01 8.04 -1.02 4.08 0 0 Z " fill="#6D2582" transform="translate(373,143)"/>
<path d="M0 0 C0.66 0 1.32 0 2 0 C2.10103455 5.60741736 1.76082036 10.94806761 1 16.5 C0.90460938 17.22703125 0.80921875 17.9540625 0.7109375 18.703125 C0.47853833 20.46935867 0.23993362 22.23477406 0 24 C-0.33 24 -0.66 24 -1 24 C-1.66 18.06 -2.32 12.12 -3 6 C-2.34 6 -1.68 6 -1 6 C-0.67 4.02 -0.34 2.04 0 0 Z " fill="#4E1D5C" transform="translate(82,210)"/>
<path d="M0 0 C2.99480287 2.99480287 2.95881774 5.24499196 3.1875 9.4375 C3.00970816 12.8155449 2.46110503 14.98647087 1 18 C-1.30798101 14.30723039 -1.95882778 10.29837925 -2 6 C-1.0625 2.5 -1.0625 2.5 0 0 Z " fill="#521D60" transform="translate(376,147)"/>
<path d="M0 0 C0.66 0.33 1.32 0.66 2 1 C0.67439637 5.20926272 -0.88782438 9.15376956 -2.8125 13.125 C-3.29332031 14.13820313 -3.77414062 15.15140625 -4.26953125 16.1953125 C-6.14726586 19.23868371 -8.10156925 20.94304914 -11 23 C-9.36398217 18.56305113 -7.19721972 14.5144508 -4.9375 10.375 C-2.15558526 5.33187494 -2.15558526 5.33187494 0 0 Z " fill="#712B80" transform="translate(361,242)"/>
<path d="M0 0 C0.66 0.33 1.32 0.66 2 1 C1.46890625 1.43570313 0.9378125 1.87140625 0.390625 2.3203125 C-4.48668105 6.4075449 -4.48668105 6.4075449 -8.3125 11.4375 C-8.869375 12.283125 -9.42625 13.12875 -10 14 C-10.99 14 -11.98 14 -13 14 C-14.89739368 15.5334075 -14.89739368 15.5334075 -16.6875 17.5 C-17.31011719 18.1496875 -17.93273437 18.799375 -18.57421875 19.46875 C-19.04472656 19.9740625 -19.51523438 20.479375 -20 21 C-20 18 -20 18 -18.41796875 16.0546875 C-12.56009606 10.33018144 -6.42439973 5.07947867 0 0 Z " fill="#E15AA9" transform="translate(136,70)"/>
<path d="M0 0 C0.33 0.66 0.66 1.32 1 2 C0.328125 3.953125 0.328125 3.953125 -0.75 6.25 C-1.12511719 7.05050781 -1.50023438 7.85101563 -1.88671875 8.67578125 C-2.25410156 9.44277344 -2.62148437 10.20976563 -3 11 C-3.515625 12.134375 -4.03125 13.26875 -4.5625 14.4375 C-6 17 -6 17 -9 19 C-7.40558803 12.02646078 -4.93378394 5.28619708 0 0 Z " fill="#471C54" transform="translate(90,116)"/>
<path d="M0 0 C0.99 0.99 1.98 1.98 3 3 C-3.6 5.97 -10.2 8.94 -17 12 C-15.60529665 7.81588995 -13.4933497 7.41437187 -9.625 5.4375 C-6.29878019 3.72276363 -3.11444547 2.07629698 0 0 Z " fill="#6A277E" transform="translate(172,45)"/>
<path d="M0 0 C0 3.9236215 -1.31283502 4.91143323 -3.8125 7.875 C-6.54699279 11.13248322 -8.81592144 14.35780081 -11 18 C-13.1875 19.8125 -13.1875 19.8125 -15 21 C-13.46226926 17.83582328 -11.77588602 14.7867651 -10 11.75 C-9.484375 10.85796875 -8.96875 9.9659375 -8.4375 9.046875 C-7.963125 8.37140625 -7.48875 7.6959375 -7 7 C-6.34 7 -5.68 7 -5 7 C-4.731875 6.401875 -4.46375 5.80375 -4.1875 5.1875 C-3.01506533 3.02775192 -1.80630718 1.64209744 0 0 Z " fill="#451C52" transform="translate(112,81)"/>
<path d="M0 0 C-5.40628061 2.3169774 -10.18507927 3.15034816 -16.0625 3.1875 C-17.08472656 3.20167969 -18.10695312 3.21585937 -19.16015625 3.23046875 C-22.02393099 2.99805787 -23.51751975 2.34250137 -26 1 C-22.41770965 0.63470654 -18.83408482 0.28470822 -15.25 -0.0625 C-13.72632813 -0.2181543 -13.72632813 -0.2181543 -12.171875 -0.37695312 C-10.70234375 -0.51713867 -10.70234375 -0.51713867 -9.203125 -0.66015625 C-8.30239258 -0.74918213 -7.40166016 -0.83820801 -6.47363281 -0.92993164 C-4.08313137 -0.99764521 -2.27129331 -0.7068821 0 0 Z " fill="#73258A" transform="translate(255,326)"/>
<path d="M0 0 C-1.55164853 1.18106063 -3.11683106 2.34435453 -4.6875 3.5 C-5.99267578 4.47453125 -5.99267578 4.47453125 -7.32421875 5.46875 C-10.23920869 7.13689023 -11.70536179 7.58371784 -15 7 C-15.66 6.01 -16.32 5.02 -17 4 C-14.54453034 3.13670227 -12.08621957 2.28410564 -9.625 1.4375 C-8.57699219 1.0672168 -8.57699219 1.0672168 -7.5078125 0.68945312 C-2.2265625 -1.11328125 -2.2265625 -1.11328125 0 0 Z " fill="#762889" transform="translate(284,318)"/>
<path d="M0 0 C3.14389967 0.92436917 4.65161232 1.43265359 6.3984375 4.27734375 C6.72070312 5.15519531 7.04296875 6.03304688 7.375 6.9375 C7.71273437 7.81277344 8.05046875 8.68804687 8.3984375 9.58984375 C9 12 9 12 8 15 C8 14.34 8 13.68 8 13 C7.01 12.67 6.02 12.34 5 12 C3 9 3 9 3 5 C2.01 4.67 1.02 4.34 0 4 C0 2.68 0 1.36 0 0 Z " fill="#75268E" transform="translate(156,304)"/>
<path d="M0 0 C0.33 0 0.66 0 1 0 C1.33965474 2.18652739 1.67142477 4.37428025 2 6.5625 C2.185625 7.78066406 2.37125 8.99882812 2.5625 10.25390625 C2.98555077 13.87627848 3.07501425 17.35712046 3 21 C2.01 19.68 1.02 18.36 0 17 C-0.66 17.66 -1.32 18.32 -2 19 C-1.34 12.73 -0.68 6.46 0 0 Z " fill="#802C98" transform="translate(84,185)"/>
<path d="M0 0 C0.33 0 0.66 0 1 0 C1.95835169 4.79175844 2.31383984 9.13548248 2 14 C0.484375 16.2421875 0.484375 16.2421875 -1 18 C-1.02684312 15.18743719 -1.04676188 12.37512759 -1.0625 9.5625 C-1.07087891 8.76005859 -1.07925781 7.95761719 -1.08789062 7.13085938 C-1.0965143 5.08704779 -1.0522815 3.04316098 -1 1 C-0.67 0.67 -0.34 0.34 0 0 Z " fill="#6B2483" transform="translate(82,180)"/>
<path d="M0 0 C3.81051702 0.67244418 7.40215196 1.56086078 11 3 C11.99 4.485 11.99 4.485 13 6 C5.78287462 6.48929664 5.78287462 6.48929664 2 4.125 C0 2 0 2 0 0 Z " fill="#581F67" transform="translate(174,323)"/>
<path d="M0 0 C1.53218462 4.59655387 0.80556586 9.10455093 -1.0625 13.5 C-1.371875 13.995 -1.68125 14.49 -2 15 C-2.66 15 -3.32 15 -4 15 C-2.05882353 2.05882353 -2.05882353 2.05882353 0 0 Z M-5 15 C-4.67 15.66 -4.34 16.32 -4 17 C-4.99 17.33 -5.98 17.66 -7 18 C-7 17.34 -7 16.68 -7 16 C-6.34 15.67 -5.68 15.34 -5 15 Z " fill="#5E206E" transform="translate(376,204)"/>
<path d="M0 0 C0.66 0.33 1.32 0.66 2 1 C1 4 1 4 -1.3984375 5.38671875 C-2.38070312 5.81597656 -3.36296875 6.24523438 -4.375 6.6875 C-5.35210937 7.12449219 -6.32921875 7.56148437 -7.3359375 8.01171875 C-10 9 -10 9 -13 9 C-3.62790698 1.81395349 -3.62790698 1.81395349 0 0 Z " fill="#CB72AF" transform="translate(158,55)"/>
<path d="M0 0 C6.19887485 -0.37952295 10.4477112 0.1647887 16 3 C16 3.66 16 4.32 16 5 C10.04680699 5.55811184 4.8643526 3.24290174 0 0 Z " fill="#692480" transform="translate(233,36)"/>
<path d="M0 0 C0.33 0 0.66 0 1 0 C3.66077956 8.44175384 3.66077956 8.44175384 1.625 13.0625 C1.08875 14.031875 0.5525 15.00125 0 16 C-0.66 16 -1.32 16 -2 16 C-1.34 10.72 -0.68 5.44 0 0 Z " fill="#722B82" transform="translate(371,204)"/>
<path d="M0 0 C0.66 0 1.32 0 2 0 C2 0.66 2 1.32 2 2 C1.01 1.67 0.02 1.34 -1 1 C-0.67 0.67 -0.34 0.34 0 0 Z M-1 3 C-4.60957611 6.2910841 -7.12637153 7.54663921 -12 8 C-9.10998474 4.78887193 -5.47884754 0.76057623 -1 3 Z " fill="#552067" transform="translate(163,46)"/>
<path d="M0 0 C-1.24735567 0.6509259 -2.49801832 1.29551669 -3.75 1.9375 C-4.44609375 2.29714844 -5.1421875 2.65679687 -5.859375 3.02734375 C-7.90224433 3.95558182 -9.81115376 4.53166578 -12 5 C-12 3.68 -12 2.36 -12 1 C-3.96428571 -1.27678571 -3.96428571 -1.27678571 0 0 Z " fill="#712686" transform="translate(267,324)"/>
<path d="M0 0 C0.99 1.32 1.98 2.64 3 4 C1.56656 4.53190541 0.12804633 5.05015258 -1.3125 5.5625 C-2.51326172 5.99755859 -2.51326172 5.99755859 -3.73828125 6.44140625 C-6 7 -6 7 -9 6 C-6.11912454 3.59927045 -3.43595166 1.52708963 0 0 Z " fill="#6A297D" transform="translate(184,40)"/>
<path d="M0 0 C0.66 0.33 1.32 0.66 2 1 C0.59921602 2.53547475 -0.82120903 4.05305148 -2.25 5.5625 C-3.43335938 6.83287109 -3.43335938 6.83287109 -4.640625 8.12890625 C-7 10 -7 10 -9.296875 9.77734375 C-10.13992188 9.39255859 -10.13992188 9.39255859 -11 9 C-10.37351562 8.51789063 -9.74703125 8.03578125 -9.1015625 7.5390625 C-7.87566406 6.59160156 -7.87566406 6.59160156 -6.625 5.625 C-5.81289063 4.99851562 -5.00078125 4.37203125 -4.1640625 3.7265625 C-1.95776805 2.03226506 -1.95776805 2.03226506 0 0 Z " fill="#7A2F8B" transform="translate(331,285)"/>
<path d="M0 0 C2.61382886 3.92074329 2.29386386 7.44511017 2 12 C1.34 12.66 0.68 13.32 0 14 C-1.49594333 9.32517708 -1.54799337 4.64398011 0 0 Z M0 4 C1 6 1 6 1 6 Z " fill="#481B51" transform="translate(381,167)"/>
<path d="M0 0 C0.33 0.66 0.66 1.32 1 2 C0.22265625 4.1640625 0.22265625 4.1640625 -0.9375 6.625 C-1.31777344 7.44226563 -1.69804688 8.25953125 -2.08984375 9.1015625 C-2.39019531 9.72804688 -2.69054687 10.35453125 -3 11 C-3.99 11 -4.98 11 -6 11 C-4.74194623 6.49197399 -3.09592835 3.5087188 0 0 Z " fill="#461C54" transform="translate(95,105)"/>
<path d="M0 0 C0.33 0.99 0.66 1.98 1 3 C-1.97 6.3 -4.94 9.6 -8 13 C-8 9.00717059 -6.52191924 7.84668408 -4 4.8125 C-3.2575 3.91144531 -2.515 3.01039063 -1.75 2.08203125 C-1.1725 1.39496094 -0.595 0.70789063 0 0 Z " fill="#732B82" transform="translate(349,265)"/>
<path d="M0 0 C2.31 0 4.62 0 7 0 C7 0.66 7 1.32 7 2 C7.99 2 8.98 2 10 2 C10.33 2.99 10.66 3.98 11 5 C8.69 4.67 6.38 4.34 4 4 C4 3.34 4 2.68 4 2 C2.68 1.67 1.36 1.34 0 1 C0 0.67 0 0.34 0 0 Z " fill="#6D2586" transform="translate(255,40)"/>
<path d="M0 0 C1.65 0.33 3.3 0.66 5 1 C5 1.66 5 2.32 5 3 C4.34 3 3.68 3 3 3 C2.690625 3.94875 2.38125 4.8975 2.0625 5.875 C1 9 1 9 0 11 C-0.66 11 -1.32 11 -2 11 C-1.34 7.37 -0.68 3.74 0 0 Z " fill="#702B7F" transform="translate(368,220)"/>
<path d="M0 0 C2.97 0 5.94 0 9 0 C9 0.66 9 1.32 9 2 C10.32 2 11.64 2 13 2 C13.33 2.99 13.66 3.98 14 5 C12.22739369 4.54857225 10.4569632 4.08859477 8.6875 3.625 C7.20830078 3.24214844 7.20830078 3.24214844 5.69921875 2.8515625 C3 2 3 2 0 0 Z " fill="#853895" transform="translate(260,44)"/>
<path d="M0 0 C1.98 0 3.96 0 6 0 C6 0.66 6 1.32 6 2 C7.32 2 8.64 2 10 2 C10.33 3.32 10.66 4.64 11 6 C7.37 4.35 3.74 2.7 0 1 C0 0.67 0 0.34 0 0 Z " fill="#7E2E96" transform="translate(286,54)"/>
<path d="M0 0 C0.66 0.33 1.32 0.66 2 1 C0.68 4.3 -0.64 7.6 -2 11 C-2.33 11 -2.66 11 -3 11 C-3.36923077 4.6 -3.36923077 4.6 -1.5 1.5625 C-1.005 1.046875 -0.51 0.53125 0 0 Z " fill="#5F2070" transform="translate(371,223)"/>
<path d="M0 0 C0.66 0 1.32 0 2 0 C2.26785714 8.03571429 2.26785714 8.03571429 0 12 C-0.19477739 10.37585622 -0.38059458 8.75063577 -0.5625 7.125 C-0.66691406 6.22007812 -0.77132812 5.31515625 -0.87890625 4.3828125 C-1 2 -1 2 0 0 Z " fill="#5E2171" transform="translate(82,210)"/>
<path d="M0 0 C2 2 2 2 2.3125 4.875 C1.9736202 8.26379801 1.27183419 9.53884629 -1 12 C-2.85228404 8.29543192 -1.04136984 3.86794512 0 0 Z " fill="#642277" transform="translate(374,159)"/>
<path d="M0 0 C2.6875 -0.3125 2.6875 -0.3125 5 0 C2.6875 2.5 2.6875 2.5 0 5 C-0.99 5 -1.98 5 -3 5 C-1.8125 2.5 -1.8125 2.5 0 0 Z " fill="#6C2480" transform="translate(319,295)"/>
<path d="M0 0 C0.6875 1.6875 0.6875 1.6875 1 4 C-0.3125 6.75 -0.3125 6.75 -2 9 C-2.66 9 -3.32 9 -4 9 C-2.25 2.25 -2.25 2.25 0 0 Z " fill="#521D5E" transform="translate(371,233)"/>
<path d="M0 0 C-1 1 -1 1 -3.06640625 1.09765625 C-3.89011719 1.08605469 -4.71382812 1.07445312 -5.5625 1.0625 C-6.38878906 1.05347656 -7.21507812 1.04445312 -8.06640625 1.03515625 C-8.70449219 1.02355469 -9.34257812 1.01195312 -10 1 C-10 0.34 -10 -0.32 -10 -1 C-5.92224809 -1.9267618 -3.57818963 -2.33958553 0 0 Z " fill="#451C53" transform="translate(203,33)"/>
<path d="M0 0 C-4.94816714 2.80396138 -9.61682285 1.77350507 -15 1 C-15 0.67 -15 0.34 -15 0 C-13.25093341 -0.19601608 -11.50068154 -0.38147403 -9.75 -0.5625 C-8.77546875 -0.66691406 -7.8009375 -0.77132813 -6.796875 -0.87890625 C-4.2368648 -0.98974468 -2.41851841 -0.77738092 0 0 Z " fill="#8B309D" transform="translate(255,326)"/>
<path d="M0 0 C0.99 0.33 1.98 0.66 3 1 C0.69 2.65 -1.62 4.3 -4 6 C-4.33 5.34 -4.66 4.68 -5 4 C-3.36587557 2.29159719 -2.13093906 1.06546953 0 0 Z " fill="#DB58B9" transform="translate(303,304)"/>
<path d="M0 0 C0.33 0 0.66 0 1 0 C0.67 2.31 0.34 4.62 0 7 C-0.66 7 -1.32 7 -2 7 C-2.33 7.66 -2.66 8.32 -3 9 C-2.5020163 5.26512223 -2.12508244 3.18762365 0 0 Z " fill="#4E1D5C" transform="translate(78,201)"/>
<path d="M0 0 C0.99 0 1.98 0 3 0 C3.25 6.625 3.25 6.625 1 10 C0.67 6.7 0.34 3.4 0 0 Z " fill="#7C2F8F" transform="translate(370,170)"/>
<path d="M0 0 C0.99 0.33 1.98 0.66 3 1 C-0.96 4.465 -0.96 4.465 -5 8 C-5.66 7.67 -6.32 7.34 -7 7 C-4.69 4.69 -2.38 2.38 0 0 Z " fill="#4B1D5A" transform="translate(133,62)"/>
<path d="M0 0 C0.99 0.33 1.98 0.66 3 1 C1.75 2.5625 1.75 2.5625 0 4 C-2.1875 3.6875 -2.1875 3.6875 -4 3 C-2.1875 1.4375 -2.1875 1.4375 0 0 Z M-6 4 C-5.34 4.33 -4.68 4.66 -4 5 C-4.99 5 -5.98 5 -7 5 C-6.67 4.67 -6.34 4.34 -6 4 Z " fill="#6A237E" transform="translate(284,317)"/>
<path d="M0 0 C0.598125 0.20625 1.19625 0.4125 1.8125 0.625 C0.1625 1.945 -1.4875 3.265 -3.1875 4.625 C-3.8475 4.295 -4.5075 3.965 -5.1875 3.625 C-5.1875 2.965 -5.1875 2.305 -5.1875 1.625 C-2.1875 -0.375 -2.1875 -0.375 0 0 Z " fill="#5D2272" transform="translate(178.1875,42.375)"/>
<path d="M0 0 C1.39195915 4.17587745 -0.17676781 6.13474776 -2 10 C-3.01136941 7.26930259 -3.04557718 6.13998707 -2.125 3.3125 C-1 1 -1 1 0 0 Z " fill="#6B267E" transform="translate(93,122)"/>
<path d="M0 0 C0.66 0.33 1.32 0.66 2 1 C0.68 3.64 -0.64 6.28 -2 9 C-2.66 8.01 -3.32 7.02 -4 6 C-2.68 4.02 -1.36 2.04 0 0 Z " fill="#6B267D" transform="translate(98,111)"/>
</svg>
